<?xml version="1.0" encoding="utf-8"?>
<!-- Generator: Adobe Illustrator 21.1.0, SVG Export Plug-In . SVG Version: 6.00 Build 0)  -->
<svg version="1.1" id="Layer_1" xmlns="http://www.w3.org/2000/svg" xmlns:xlink="http://www.w3.org/1999/xlink" x="0px" y="0px"
	 viewBox="0 0 30 30" style="enable-background:new 0 0 30 30;" xml:space="preserve">
<style type="text/css">
	.st0{fill:#656666;}
	.st1{clip-path:url(#SVGID_2_);fill:#FFFFFF;stroke:#595A5B;stroke-width:0.25;stroke-miterlimit:10;}
	.st2{fill:#FFFFFF;stroke:#595A5A;stroke-width:0.25;stroke-miterlimit:10;}
</style>
<rect y="0" class="st0" width="30" height="30"/>
<g>
	<g>
		<defs>
			<rect id="SVGID_1_" x="5" y="2.3" width="19.9" height="25.5"/>
		</defs>
		<clipPath id="SVGID_2_">
			<use xlink:href="#SVGID_1_"  style="overflow:visible;"/>
		</clipPath>
		<path class="st1" d="M22.8,16.9c-1-1.6-3.5-2.7-6.8-2.9c-0.1,0-0.3,0-0.4,0.1c-0.1,0.1-0.2,0.2-0.2,0.3c-0.1,0.2-0.3,0.4-0.5,0.4
			c-0.2,0-0.3-0.2-0.5-0.4c-0.1-0.1-0.2-0.2-0.2-0.3C14.1,14,13.9,14,13.8,14c-3.3,0.2-5.8,1.3-6.8,3c-0.2,0.3-3.8,6.7-0.8,10.5
			c0.1,0.1,0.3,0.2,0.4,0.2h16.5c0.2,0,0.3-0.1,0.4-0.2C26.6,23.6,22.8,17,22.8,16.9L22.8,16.9z M15.8,23.7c0,0.1,0,0.1,0,0.2
			l-0.6,1.1c-0.1,0.1-0.2,0.2-0.3,0.2c-0.1,0-0.3-0.1-0.3-0.2L14,23.8c0-0.1,0-0.1,0-0.2l-0.2-7.6c0-0.1,0.1-0.3,0.2-0.3l0.8-0.6
			c0.1-0.1,0.3-0.1,0.5,0l0.8,0.6c0.1,0.1,0.2,0.2,0.2,0.3L15.8,23.7z M15.8,23.7"/>
	</g>
	<path class="st2" d="M14.8,13.3c3.1,0,5.5-2.5,5.5-5.5c0-3.1-2.5-5.5-5.5-5.5c-3.1,0-5.5,2.5-5.5,5.5C9.2,10.9,11.7,13.3,14.8,13.3
		L14.8,13.3z M14.8,13.3"/>
</g>
</svg>
