<?xml version="1.0" encoding="utf-8"?>
<!-- Generator: Adobe Illustrator 22.0.0, SVG Export Plug-In . SVG Version: 6.00 Build 0)  -->
<svg version="1.1" id="Layer_1" xmlns="http://www.w3.org/2000/svg" xmlns:xlink="http://www.w3.org/1999/xlink" x="0px" y="0px"
	 viewBox="0 0 595.3 841.9" style="enable-background:new 0 0 595.3 841.9;" xml:space="preserve">
<g>
	<g>
		<path style="fill:#00B099;" d="M37.8,22.4c0-4.2,2.4-6.7,5.8-6.7s5.8,2.5,5.8,6.7c0,4.2-2.4,6.8-5.8,6.8S37.8,26.6,37.8,22.4z
			 M46.9,22.4c0-2.9-1.3-4.7-3.4-4.7c-2.1,0-3.4,1.8-3.4,4.7c0,3.1,1.3,4.9,3.4,4.9C45.6,27.3,46.9,25.5,46.9,22.4z M42.3,28.9
			l2.4-0.2c0.5,1.3,1.8,1.9,3.2,1.9c0.6,0,1-0.1,1.4-0.2l0.4,1.7c-0.4,0.2-1.2,0.4-2.1,0.4C45,32.5,43.1,31,42.3,28.9z"/>
		<path style="fill:#00B099;" d="M51.9,23.3v-7.3h2.3v7.5c0,2.8,1.1,3.8,2.6,3.8c1.6,0,2.7-0.9,2.7-3.8v-7.5h2.2v7.3
			c0,4.3-1.9,6-4.9,6S51.9,27.6,51.9,23.3z"/>
		<path style="fill:#00B099;" d="M67.2,24.1l-3.9-8.2h2.5l1.4,3.3c0.4,1,0.8,1.9,1.2,2.9h0.1c0.4-1,0.8-1.9,1.2-2.9l1.4-3.3h2.4
			l-3.9,8.2V29h-2.3V24.1z"/>
		<path style="fill:#00B099;" d="M81.7,17.9h-3.8v-2h9.9v2H84V29h-2.3V17.9z"/>
		<path style="fill:#00B099;" d="M90,15.9h4.4c2.7,0,4.8,1,4.8,3.9c0,2.8-2.1,4.1-4.8,4.1h-2.1V29H90V15.9z M94.1,22
			c1.8,0,2.8-0.7,2.8-2.2c0-1.5-1-2-2.8-2h-1.8V22H94.1z M94,23.3l1.7-1.4l4.1,7.1h-2.6L94,23.3z"/>
		<path style="fill:#00B099;" d="M99.9,12.9l1.3-1.5l3.1,2.7l-1,1.2L99.9,12.9z M101.8,15.9h2.3V29h-2.3V15.9z"/>
		<path style="fill:#00B099;" d="M107.5,15.9h2.4l4.1,7.4l1.4,2.8h0.1c-0.1-1.4-0.3-3-0.3-4.5v-5.7h2.2V29h-2.4l-4.1-7.4l-1.4-2.8
			h-0.1c0.1,1.4,0.3,3,0.3,4.4V29h-2.2V15.9z"/>
		<path style="fill:#00B099;" d="M120.6,15.9h2.3v5.3h5.3v-5.3h2.3V29h-2.3v-5.8h-5.3V29h-2.3V15.9z"/>
		<path style="fill:#00B099;" d="M137.8,15.9h4.2c2.7,0,4.7,0.8,4.7,3.2c0,1.2-0.7,2.4-1.8,2.8v0.1c1.4,0.3,2.5,1.3,2.5,3.1
			c0,2.6-2.1,3.8-5,3.8h-4.5V15.9z M141.8,21.3c1.8,0,2.6-0.7,2.6-1.8c0-1.3-0.9-1.7-2.6-1.7h-1.7v3.6H141.8z M142.1,27.2
			c1.9,0,3-0.7,3-2.2c0-1.4-1-2-3-2h-2v4.1H142.1z"/>
		<path style="fill:#00B099;" d="M149.8,15.9h7.9v2h-5.6v3.4h4.7v2h-4.7V27h5.8v2h-8.1V15.9z M152.6,12.3h2.5l1.9,2.2l-1,0.7
			l-2.1-1.8h-0.1l-2.1,1.8l-1-0.7L152.6,12.3z M152.7,32c0-0.8,0.6-1.3,1.4-1.3s1.4,0.5,1.4,1.3c0,0.8-0.6,1.3-1.4,1.3
			S152.7,32.8,152.7,32z"/>
		<path style="fill:#00B099;" d="M160.5,15.9h2.4l4.1,7.4l1.4,2.8h0.1c-0.1-1.4-0.3-3-0.3-4.5v-5.7h2.2V29h-2.4l-4.1-7.4l-1.4-2.8
			h-0.1c0.1,1.4,0.3,3,0.3,4.4V29h-2.2V15.9z"/>
		<path style="fill:#00B099;" d="M173.6,15.9h2.3v5.3h5.3v-5.3h2.3V29h-2.3v-5.8H176V29h-2.3V15.9z"/>
		<path style="fill:#00B099;" d="M190.9,15.9h2.4l4.1,7.4l1.4,2.8h0.1c-0.1-1.4-0.3-3-0.3-4.5v-5.7h2.2V29h-2.4l-4.1-7.4l-1.4-2.8
			h-0.1c0.1,1.4,0.3,3,0.3,4.4V29h-2.2V15.9z"/>
		<path style="fill:#00B099;" d="M204,15.9h2.3v5.3h5.3v-5.3h2.3V29h-2.3v-5.8h-5.3V29H204V15.9z"/>
		<path style="fill:#00B099;" d="M219.8,15.9h2.7l4.3,13.1h-2.5l-2-7c-0.4-1.4-0.8-2.9-1.2-4.3h-0.1c-0.4,1.4-0.7,2.9-1.2,4.3l-2,7
			h-2.4L219.8,15.9z M219.9,12.3h2.5l1.9,2.2l-1,0.7l-2.1-1.8h-0.1l-2.1,1.8l-1-0.7L219.9,12.3z M218.1,23.6h6.2v1.8h-6.2V23.6z"/>
		<path style="fill:#00B099;" d="M228.4,15.9h2.4l4.1,7.4l1.4,2.8h0.1c-0.1-1.4-0.3-3-0.3-4.5v-5.7h2.2V29h-2.4l-4.1-7.4l-1.4-2.8
			h-0.1c0.1,1.4,0.3,3,0.3,4.4V29h-2.2V15.9z"/>
		<path style="fill:#00B099;" d="M244.5,21.7l1.6-0.1h5v1.2h-6.6V21.7z M246,15.9h3.5c4,0,6.4,2.2,6.4,6.5c0,4.3-2.4,6.6-6.3,6.6
			H246V15.9z M249.4,27.1c2.6,0,4.1-1.5,4.1-4.7c0-3.2-1.5-4.6-4.1-4.6h-1v9.3H249.4z"/>
		<path style="fill:#00B099;" d="M258.5,15.9h7.9v2h-5.6v3.4h4.7v2h-4.7V27h5.8v2h-8.1V15.9z M259.8,14.5l1.8-1.9h2l1.8,1.9
			l-0.9,0.7l-1.9-1.4h-0.1l-1.9,1.4L259.8,14.5z M264.6,13l2-1.8l0.8,1l-2.1,1.6L264.6,13z"/>
		<path style="fill:#00B099;" d="M269.3,15.9h2.4l4.1,7.4l1.4,2.8h0.1c-0.1-1.4-0.3-3-0.3-4.5v-5.7h2.2V29h-2.4l-4.1-7.4l-1.4-2.8
			h-0.1c0.1,1.4,0.3,3,0.3,4.4V29h-2.2V15.9z"/>
		<path style="fill:#00B099;" d="M286.4,15.9h2.3V27h5.4v2h-7.8V15.9z"/>
		<path style="fill:#00B099;" d="M299,15.9h2.7L306,29h-2.5l-2-7c-0.4-1.4-0.8-2.9-1.2-4.3h-0.1c-0.4,1.4-0.7,2.9-1.2,4.3l-2,7h-2.4
			L299,15.9z M297.2,12.9l1.3-1.5l3.1,2.7l-1,1.2L297.2,12.9z M297.3,23.6h6.2v1.8h-6.2V23.6z"/>
		<path style="fill:#00B099;" d="M307.6,15.9h2.6l2.3,6.4c0.3,0.8,0.6,1.7,0.8,2.6h0.1c0.3-0.9,0.5-1.7,0.8-2.6l2.3-6.4h2.6V29h-2.1
			v-6c0-1.2,0.2-2.9,0.3-4.2h-0.1l-1.1,3l-2.2,5.9h-1.4l-2.2-5.9l-1-3h-0.1c0.1,1.2,0.3,3,0.3,4.2v6h-2.1V15.9z"/>
		<path style="fill:#00B099;" d="M328.8,22.3l-3.5-6.3h2.6l1.5,2.9c0.3,0.6,0.6,1.2,1,2h0.1c0.3-0.8,0.6-1.4,0.9-2l1.4-2.9h2.5
			l-3.5,6.4l3.7,6.6h-2.6l-1.6-3.1c-0.3-0.7-0.7-1.3-1-2.1h-0.1c-0.3,0.8-0.7,1.5-1,2.1l-1.6,3.1h-2.5L328.8,22.3z"/>
		<path style="fill:#00B099;" d="M337.3,15.9h7.9v2h-5.6v3.4h4.7v2h-4.7V27h5.8v2h-8.1V15.9z M340.1,14.1l3.1-2.7l1.3,1.5l-3.4,2.3
			L340.1,14.1z"/>
		<path style="fill:#00B099;" d="M350.7,17.9h-3.8v-2h9.9v2H353V29h-2.3V17.9z"/>
		<path style="fill:#00B099;" d="M363,15.9h2.4l4.1,7.4l1.4,2.8h0.1c-0.1-1.4-0.3-3-0.3-4.5v-5.7h2.2V29h-2.4l-4.1-7.4l-1.4-2.8
			h-0.1c0.1,1.4,0.3,3,0.3,4.4V29H363V15.9z"/>
		<path style="fill:#00B099;" d="M375.4,22.5c0-4.3,2.7-6.8,6.2-6.8c1.9,0,3.1,0.8,4,1.7l-1.2,1.5c-0.7-0.6-1.4-1.1-2.6-1.1
			c-2.3,0-3.9,1.8-3.9,4.7c0,3,1.4,4.8,4,4.8c0.7,0,1.4-0.2,1.9-0.6v-2.8h-2.5v-1.9h4.5v5.8c-0.9,0.9-2.4,1.6-4.2,1.6
			C378.1,29.2,375.4,26.8,375.4,22.5z"/>
		<path style="fill:#00B099;" d="M388.7,15.9h2.3v5.3h5.3v-5.3h2.3V29h-2.3v-5.8H391V29h-2.3V15.9z"/>
		<path style="fill:#00B099;" d="M401.9,15.9h2.3V29h-2.3V15.9z"/>
		<path style="fill:#00B099;" d="M407.6,15.9h7.9v2h-5.6v3.4h4.7v2h-4.7V27h5.8v2h-8.1V15.9z M410.4,12.3h2.5l1.9,2.2l-1,0.7
			l-2.1-1.8h-0.1l-2.1,1.8l-1-0.7L410.4,12.3z M410.5,32c0-0.8,0.6-1.3,1.4-1.3s1.4,0.5,1.4,1.3c0,0.8-0.6,1.3-1.4,1.3
			S410.5,32.8,410.5,32z"/>
		<path style="fill:#00B099;" d="M418.3,15.9h2.6l2.3,6.4c0.3,0.8,0.6,1.7,0.8,2.6h0.1c0.3-0.9,0.5-1.7,0.8-2.6l2.3-6.4h2.6V29h-2.1
			v-6c0-1.2,0.2-2.9,0.3-4.2H428l-1.1,3l-2.2,5.9h-1.4l-2.2-5.9l-1-3h-0.1c0.1,1.2,0.3,3,0.3,4.2v6h-2.1V15.9z"/>
		<path style="fill:#00B099;" d="M436.5,22.5c0-4.3,2.7-6.8,6-6.8c1.6,0,2.9,0.8,3.8,1.7l-1.2,1.5c-0.7-0.7-1.5-1.1-2.5-1.1
			c-2.1,0-3.7,1.8-3.7,4.7c0,3,1.4,4.8,3.6,4.8c1.2,0,2.1-0.5,2.8-1.3l1.2,1.5c-1.1,1.2-2.4,1.9-4.1,1.9
			C439.2,29.2,436.5,26.8,436.5,22.5z"/>
		<path style="fill:#00B099;" d="M451.3,15.9h2.7l4.3,13.1h-2.5l-2-7c-0.4-1.4-0.8-2.9-1.2-4.3h-0.1c-0.4,1.4-0.7,2.9-1.2,4.3l-2,7
			h-2.4L451.3,15.9z M451.4,12.3h2.5l1.9,2.2l-1,0.7l-2.1-1.8h-0.1l-2.1,1.8l-1-0.7L451.4,12.3z M449.6,23.6h6.2v1.8h-6.2V23.6z
			 M451.3,32c0-0.8,0.6-1.3,1.4-1.3s1.4,0.5,1.4,1.3c0,0.8-0.6,1.3-1.4,1.3S451.3,32.8,451.3,32z"/>
		<path style="fill:#00B099;" d="M459.9,15.9h2.4l4.1,7.4l1.4,2.8h0.1c-0.1-1.4-0.3-3-0.3-4.5v-5.7h2.2V29h-2.4l-4.1-7.4l-1.4-2.8
			h-0.1c0.1,1.4,0.3,3,0.3,4.4V29h-2.2V15.9z"/>
		<path style="fill:#00B099;" d="M477,15.9h2.3V27h5.4v2H477V15.9z"/>
		<path style="fill:#00B099;" d="M489.6,15.9h2.7l4.3,13.1h-2.5l-2-7c-0.4-1.4-0.8-2.9-1.2-4.3h-0.1c-0.4,1.4-0.7,2.9-1.2,4.3l-2,7
			h-2.4L489.6,15.9z M489.7,12.3h2.5l1.9,2.2l-1,0.7l-2.1-1.8h-0.1l-2.1,1.8l-1-0.7L489.7,12.3z M487.9,23.6h6.2v1.8h-6.2V23.6z"/>
		<path style="fill:#00B099;" d="M498.3,15.9h2.6l2.3,6.4c0.3,0.8,0.6,1.7,0.8,2.6h0.1c0.3-0.9,0.5-1.7,0.8-2.6l2.3-6.4h2.6V29h-2.1
			v-6c0-1.2,0.2-2.9,0.3-4.2h-0.1l-1.1,3l-2.2,5.9h-1.4l-2.2-5.9l-1-3H500c0.1,1.2,0.3,3,0.3,4.2v6h-2.1V15.9z"/>
		<path style="fill:#00B099;" d="M516.3,27.3l1.4-1.6c0.9,0.9,2.2,1.5,3.4,1.5c1.5,0,2.3-0.7,2.3-1.7c0-1.1-0.8-1.4-2-1.9l-1.8-0.8
			c-1.3-0.5-2.6-1.6-2.6-3.5c0-2.1,1.8-3.7,4.4-3.7c1.5,0,3,0.6,4,1.7l-1.2,1.5c-0.8-0.7-1.7-1.1-2.8-1.1c-1.2,0-2,0.6-2,1.5
			c0,1,1,1.4,2.1,1.9l1.8,0.7c1.6,0.6,2.6,1.6,2.6,3.5c0,2.1-1.8,3.9-4.7,3.9C519.2,29.2,517.5,28.5,516.3,27.3z"/>
		<path style="fill:#00B099;" d="M530.6,15.9h2.7l4.3,13.1h-2.5l-2-7c-0.4-1.4-0.8-2.9-1.2-4.3h-0.1c-0.4,1.4-0.7,2.9-1.2,4.3l-2,7
			h-2.4L530.6,15.9z M528.8,12.9l1.3-1.5l3.1,2.7l-1,1.2L528.8,12.9z M528.9,23.6h6.2v1.8h-6.2V23.6z"/>
		<path style="fill:#00B099;" d="M539.2,15.9h2.4l4.1,7.4l1.4,2.8h0.1c-0.1-1.4-0.3-3-0.3-4.5v-5.7h2.2V29h-2.4l-4.1-7.4l-1.4-2.8
			h-0.1c0.1,1.4,0.3,3,0.3,4.4V29h-2.2V15.9z"/>
		<path style="fill:#00B099;" d="M551.6,22.5c0-4.3,2.7-6.8,6.2-6.8c1.9,0,3.1,0.8,4,1.7l-1.2,1.5c-0.7-0.6-1.4-1.1-2.6-1.1
			c-2.3,0-3.9,1.8-3.9,4.7c0,3,1.4,4.8,4,4.8c0.7,0,1.4-0.2,1.9-0.6v-2.8h-2.5v-1.9h4.5v5.8c-0.9,0.9-2.4,1.6-4.2,1.6
			C554.3,29.2,551.6,26.8,551.6,22.5z"/>
		<path style="fill:#00B099;" d="M207.4,41.9h-3.8v-2h9.9v2h-3.8V53h-2.3V41.9z"/>
		<path style="fill:#00B099;" d="M218.2,39.9h2.7l4.3,13.1h-2.5l-2-7c-0.4-1.4-0.8-2.9-1.2-4.3h-0.1c-0.4,1.4-0.7,2.9-1.2,4.3l-2,7
			h-2.4L218.2,39.9z M216.5,47.6h6.2v1.8h-6.2V47.6z M218.1,56c0-0.8,0.6-1.3,1.4-1.3c0.8,0,1.4,0.5,1.4,1.3c0,0.8-0.6,1.3-1.4,1.3
			C218.7,57.3,218.1,56.8,218.1,56z"/>
		<path style="fill:#00B099;" d="M226.8,39.9h2.3V53h-2.3V39.9z"/>
		<path style="fill:#00B099;" d="M236.5,39.9h2.3v5.9h0.1l4.7-5.9h2.6l-4,5.1l4.7,8h-2.6l-3.5-6.2l-1.9,2.3V53h-2.3V39.9z"/>
		<path style="fill:#00B099;" d="M248.4,39.9h2.3v5.3h5.3v-5.3h2.3V53H256v-5.8h-5.3V53h-2.3V39.9z"/>
		<path style="fill:#00B099;" d="M261,46.4c0-4.2,2.4-6.7,5.8-6.7s5.8,2.5,5.8,6.7c0,4.2-2.4,6.8-5.8,6.8S261,50.6,261,46.4z
			 M270.1,46.4c0-2.9-1.3-4.7-3.4-4.7c-2.1,0-3.4,1.8-3.4,4.7c0,2.9,1.3,4.8,3.4,4.8C268.8,51.2,270.1,49.3,270.1,46.4z"/>
		<path style="fill:#00B099;" d="M277.7,39.9h2.7l4.3,13.1h-2.5l-2-7c-0.4-1.4-0.8-2.9-1.2-4.3H279c-0.4,1.4-0.7,2.9-1.2,4.3l-2,7
			h-2.4L277.7,39.9z M275.9,47.6h6.2v1.8h-6.2V47.6z"/>
		<path style="fill:#00B099;" d="M290.3,39.9h2.3v5.9h0.1l4.7-5.9h2.6l-4,5.1l4.7,8H298l-3.5-6.2l-1.9,2.3V53h-2.3V39.9z"/>
		<path style="fill:#00B099;" d="M302.2,39.9h2.3v5.3h5.3v-5.3h2.3V53h-2.3v-5.8h-5.3V53h-2.3V39.9z"/>
		<path style="fill:#00B099;" d="M318.1,39.9h2.7L325,53h-2.5l-2-7c-0.4-1.4-0.8-2.9-1.2-4.3h-0.1c-0.4,1.4-0.7,2.9-1.2,4.3l-2,7
			h-2.4L318.1,39.9z M316.3,47.6h6.2v1.8h-6.2V47.6z M318.1,38.1l3.1-2.7l1.3,1.5l-3.4,2.3L318.1,38.1z"/>
		<path style="fill:#00B099;" d="M326.7,39.9h2.6l2.3,6.4c0.3,0.8,0.6,1.7,0.8,2.6h0.1c0.3-0.9,0.5-1.7,0.8-2.6l2.3-6.4h2.6V53h-2.1
			v-6c0-1.2,0.2-2.9,0.3-4.2h-0.1l-1.1,3l-2.2,5.9h-1.4l-2.2-5.9l-1-3h-0.1c0.1,1.2,0.3,3,0.3,4.2v6h-2.1V39.9z"/>
		<path style="fill:#00B099;" d="M345.6,39.9h4.2c2.7,0,4.7,0.8,4.7,3.2c0,1.2-0.7,2.4-1.8,2.8v0.1c1.4,0.3,2.5,1.3,2.5,3.1
			c0,2.6-2.1,3.8-5,3.8h-4.5V39.9z M349.5,45.3c1.8,0,2.6-0.7,2.6-1.8c0-1.3-0.9-1.7-2.6-1.7h-1.7v3.6H349.5z M349.8,51.2
			c1.9,0,3-0.7,3-2.2c0-1.4-1-2-3-2h-2v4.1H349.8z"/>
		<path style="fill:#00B099;" d="M357.5,39.9h7.9v2h-5.6v3.4h4.7v2h-4.7V51h5.8v2h-8.1V39.9z M360.3,36.3h2.5l1.9,2.2l-1,0.7
			l-2.1-1.8h-0.1l-2.1,1.8l-1-0.7L360.3,36.3z M360.4,56c0-0.8,0.6-1.3,1.4-1.3s1.4,0.5,1.4,1.3c0,0.8-0.6,1.3-1.4,1.3
			S360.4,56.8,360.4,56z"/>
		<path style="fill:#00B099;" d="M368.2,39.9h2.4l4.1,7.4l1.4,2.8h0.1c-0.1-1.4-0.3-3-0.3-4.5v-5.7h2.2V53h-2.4l-4.1-7.4l-1.4-2.8
			h-0.1c0.1,1.4,0.3,3,0.3,4.4V53h-2.2V39.9z"/>
		<path style="fill:#00B099;" d="M381.4,39.9h2.3v5.3h5.3v-5.3h2.3V53H389v-5.8h-5.3V53h-2.3V39.9z"/>
	</g>
</g>
<rect x="95" y="75" style="fill:#E7E7E7;" width="411.3" height="70"/>
<g>
	<g>
		<path d="M120.4,94.1c0-3.4,1.9-5.4,4.6-5.4s4.6,2,4.6,5.4c0,3.4-1.9,5.5-4.6,5.5S120.4,97.4,120.4,94.1z M127.8,94.1
			c0-2.3-1.1-3.8-2.7-3.8s-2.7,1.4-2.7,3.8c0,2.4,1.1,3.9,2.7,3.9S127.8,96.5,127.8,94.1z M124.1,99.3l1.9-0.2
			c0.4,1,1.5,1.5,2.6,1.5c0.5,0,0.8-0.1,1.1-0.2l0.3,1.4c-0.4,0.2-1,0.3-1.7,0.3C126.2,102.1,124.8,100.9,124.1,99.3z"/>
		<path d="M131.7,94.7v-5.9h1.9v6c0,2.3,0.9,3,2.1,3c1.3,0,2.2-0.7,2.2-3v-6h1.8v5.9c0,3.4-1.5,4.8-4,4.8
			C133.3,99.5,131.7,98.2,131.7,94.7z"/>
		<path d="M144,95.4l-3.1-6.6h2l1.1,2.7c0.3,0.8,0.6,1.5,0.9,2.3h0.1c0.3-0.8,0.7-1.5,1-2.3l1.1-2.7h1.9l-3.1,6.6v3.9H144V95.4z
			 M143.9,87.4l2.5-2.2l1,1.2l-2.7,1.9L143.9,87.4z"/>
		<path d="M153.5,88.9h1.9v4.8h0.1l3.7-4.8h2.1l-3.2,4.1l3.8,6.4h-2l-2.8-4.9l-1.5,1.9v3.1h-1.9V88.9z"/>
		<path d="M163,88.9h1.9v4.2h4.2v-4.2h1.9v10.5h-1.9v-4.6h-4.2v4.6H163V88.9z"/>
		<path d="M175.7,88.9h2.2l3.4,10.5h-2l-1.6-5.6c-0.3-1.1-0.6-2.3-0.9-3.5h-0.1c-0.3,1.2-0.6,2.3-0.9,3.5l-1.6,5.6h-1.9L175.7,88.9z
			 M174.3,95h4.9v1.5h-4.9V95z M175.7,87.4l2.5-2.2l1,1.2l-2.7,1.9L175.7,87.4z"/>
		<path d="M182,94.1c0-3.4,2.1-5.5,4.8-5.5c1.3,0,2.4,0.6,3,1.3l-1,1.2c-0.5-0.5-1.2-0.9-2-0.9c-1.7,0-2.9,1.4-2.9,3.8
			c0,2.4,1.1,3.8,2.9,3.8c0.9,0,1.6-0.4,2.2-1.1l1,1.2c-0.8,1-1.9,1.5-3.3,1.5C184.1,99.5,182,97.6,182,94.1z"/>
		<path d="M191.8,88.9h1.9v4.2h4.2v-4.2h1.9v10.5h-1.9v-4.6h-4.2v4.6h-1.9V88.9z"/>
		<path d="M204.7,93.5l1.3-0.1h4v0.9h-5.3V93.5z M206,88.9h2.8c3.2,0,5.1,1.7,5.1,5.2s-1.9,5.3-5,5.3H206V88.9z M208.6,97.8
			c2.1,0,3.3-1.2,3.3-3.8c0-2.6-1.2-3.7-3.3-3.7h-0.8v7.5H208.6z"/>
		<path d="M216,88.9h6.3v1.6h-4.4v2.7h3.8v1.6h-3.8v3.1h4.6v1.6H216V88.9z M217,87.7l1.5-1.5h1.6l1.5,1.5l-0.7,0.5l-1.5-1.1h-0.1
			l-1.5,1.1L217,87.7z M220.8,86.5l1.6-1.4l0.7,0.8l-1.7,1.3L220.8,86.5z"/>
		<path d="M224.6,88.9h1.9l3.3,5.9l1.1,2.2h0.1c-0.1-1.1-0.2-2.4-0.2-3.6v-4.5h1.8v10.5h-1.9l-3.3-5.9l-1.1-2.2h-0.1
			c0.1,1.1,0.2,2.4,0.2,3.5v4.6h-1.8V88.9z"/>
		<path d="M238.3,88.9h1.9v8.9h4.3v1.6h-6.2V88.9z"/>
		<path d="M248.4,88.9h2.2l3.4,10.5h-2l-1.6-5.6c-0.3-1.1-0.6-2.3-0.9-3.5h-0.1c-0.3,1.2-0.6,2.3-0.9,3.5l-1.6,5.6h-1.9L248.4,88.9z
			 M246.9,86.4l1-1.2l2.5,2.2l-0.8,0.9L246.9,86.4z M247,95h4.9v1.5H247V95z"/>
		<path d="M255.2,88.9h2.1l1.9,5.1c0.2,0.7,0.4,1.4,0.7,2.1h0.1c0.2-0.7,0.4-1.4,0.7-2.1l1.8-5.1h2.1v10.5h-1.7v-4.8
			c0-1,0.1-2.4,0.2-3.3H263l-0.8,2.4l-1.7,4.7h-1.1l-1.7-4.7l-0.8-2.4h-0.1c0.1,1,0.2,2.4,0.2,3.3v4.8h-1.7V88.9z"/>
		<path d="M272.2,93.9l-2.8-5.1h2.1l1.2,2.3c0.3,0.5,0.5,1,0.8,1.6h0.1c0.3-0.6,0.5-1.1,0.7-1.6l1.1-2.3h2l-2.8,5.2l3,5.3h-2.1
			l-1.3-2.5c-0.3-0.5-0.5-1.1-0.8-1.7h-0.1c-0.3,0.6-0.5,1.2-0.8,1.7l-1.2,2.5h-2L272.2,93.9z"/>
		<path d="M279,88.9h6.3v1.6h-4.4v2.7h3.8v1.6h-3.8v3.1h4.6v1.6H279V88.9z M281.2,87.4l2.5-2.2l1,1.2l-2.7,1.9L281.2,87.4z"/>
		<path d="M289.7,90.4h-3v-1.6h7.9v1.6h-3v8.9h-1.9V90.4z"/>
		<path d="M299.6,88.9h1.9l3.3,5.9l1.1,2.2h0.1c-0.1-1.1-0.2-2.4-0.2-3.6v-4.5h1.8v10.5h-1.9l-3.3-5.9l-1.1-2.2h-0.1
			c0.1,1.1,0.2,2.4,0.2,3.5v4.6h-1.8V88.9z"/>
		<path d="M309.5,94.1c0-3.4,2.2-5.5,5-5.5c1.5,0,2.5,0.7,3.2,1.3l-1,1.2c-0.5-0.5-1.1-0.9-2.1-0.9c-1.9,0-3.1,1.4-3.1,3.8
			c0,2.4,1.1,3.8,3.2,3.8c0.6,0,1.2-0.2,1.5-0.5v-2.3h-2v-1.5h3.6v4.6c-0.7,0.7-1.9,1.2-3.3,1.2C311.6,99.5,309.5,97.6,309.5,94.1z"
			/>
		<path d="M320.1,88.9h1.9v4.2h4.2v-4.2h1.9v10.5h-1.9v-4.6H322v4.6h-1.9V88.9z"/>
		<path d="M330.7,88.9h1.9v10.5h-1.9V88.9z"/>
		<path d="M335.2,88.9h6.3v1.6h-4.4v2.7h3.8v1.6h-3.8v3.1h4.6v1.6h-6.5V88.9z M337.5,85.9h2l1.5,1.8l-0.8,0.5l-1.7-1.4h-0.1
			l-1.7,1.4l-0.8-0.5L337.5,85.9z M337.5,101.7c0-0.6,0.5-1,1.1-1c0.6,0,1.1,0.4,1.1,1c0,0.6-0.5,1.1-1.1,1.1
			C338,102.8,337.5,102.4,337.5,101.7z"/>
		<path d="M343.8,88.9h2.1l1.9,5.1c0.2,0.7,0.4,1.4,0.7,2.1h0.1c0.2-0.7,0.4-1.4,0.7-2.1l1.8-5.1h2.1v10.5h-1.7v-4.8
			c0-1,0.1-2.4,0.2-3.3h-0.1l-0.8,2.4l-1.7,4.7h-1.1l-1.7-4.7l-0.8-2.4h-0.1c0.1,1,0.2,2.4,0.2,3.3v4.8h-1.7V88.9z"/>
		<path d="M358.4,94.1c0-3.4,2.1-5.5,4.8-5.5c1.3,0,2.4,0.6,3,1.3l-1,1.2c-0.5-0.5-1.2-0.9-2-0.9c-1.7,0-2.9,1.4-2.9,3.8
			c0,2.4,1.1,3.8,2.9,3.8c0.9,0,1.6-0.4,2.2-1.1l1,1.2c-0.8,1-1.9,1.5-3.3,1.5C360.5,99.5,358.4,97.6,358.4,94.1z"/>
		<path d="M370.2,88.9h2.2l3.4,10.5h-2l-1.6-5.6c-0.3-1.1-0.6-2.3-0.9-3.5h-0.1c-0.3,1.2-0.6,2.3-0.9,3.5l-1.6,5.6h-1.9L370.2,88.9z
			 M370.3,85.9h2l1.5,1.8l-0.8,0.5l-1.7-1.4h-0.1l-1.7,1.4l-0.8-0.5L370.3,85.9z M368.8,95h4.9v1.5h-4.9V95z M370.2,101.7
			c0-0.6,0.5-1,1.1-1s1.1,0.4,1.1,1c0,0.6-0.5,1.1-1.1,1.1S370.2,102.4,370.2,101.7z"/>
		<path d="M377.1,88.9h1.9l3.3,5.9l1.1,2.2h0.1c-0.1-1.1-0.2-2.4-0.2-3.6v-4.5h1.8v10.5H383l-3.3-5.9l-1.1-2.2h-0.1
			c0.1,1.1,0.2,2.4,0.2,3.5v4.6h-1.8V88.9z"/>
		<path d="M390.8,88.9h1.9v8.9h4.3v1.6h-6.2V88.9z"/>
		<path d="M400.9,88.9h2.2l3.4,10.5h-2l-1.6-5.6c-0.3-1.1-0.6-2.3-0.9-3.5h-0.1c-0.3,1.2-0.6,2.3-0.9,3.5l-1.6,5.6h-1.9L400.9,88.9z
			 M400.9,85.9h2l1.5,1.8l-0.8,0.5l-1.7-1.4h-0.1l-1.7,1.4l-0.8-0.5L400.9,85.9z M399.5,95h4.9v1.5h-4.9V95z"/>
		<path d="M407.8,88.9h2.1l1.9,5.1c0.2,0.7,0.4,1.4,0.7,2.1h0.1c0.2-0.7,0.4-1.4,0.7-2.1l1.8-5.1h2.1v10.5h-1.7v-4.8
			c0-1,0.1-2.4,0.2-3.3h-0.1l-0.8,2.4l-1.7,4.7h-1.1l-1.7-4.7l-0.8-2.4h-0.1c0.1,1,0.2,2.4,0.2,3.3v4.8h-1.7V88.9z"/>
		<path d="M422.2,98l1.1-1.3c0.8,0.7,1.8,1.2,2.7,1.2c1.2,0,1.8-0.5,1.8-1.4c0-0.9-0.7-1.1-1.6-1.5l-1.4-0.6c-1-0.4-2.1-1.2-2.1-2.8
			c0-1.7,1.5-3,3.5-3c1.2,0,2.4,0.5,3.2,1.3l-1,1.2c-0.7-0.6-1.4-0.9-2.3-0.9c-1,0-1.6,0.5-1.6,1.2c0,0.8,0.8,1.1,1.7,1.5l1.4,0.6
			c1.2,0.5,2.1,1.3,2.1,2.8c0,1.7-1.4,3.1-3.8,3.1C424.5,99.5,423.1,99,422.2,98z"/>
		<path d="M433.6,88.9h2.2l3.4,10.5h-2l-1.6-5.6c-0.3-1.1-0.6-2.3-0.9-3.5h-0.1c-0.3,1.2-0.6,2.3-0.9,3.5l-1.6,5.6h-1.9L433.6,88.9z
			 M432.2,86.4l1-1.2l2.5,2.2l-0.8,0.9L432.2,86.4z M432.2,95h4.9v1.5h-4.9V95z"/>
		<path d="M440.5,88.9h1.9l3.3,5.9l1.1,2.2h0.1c-0.1-1.1-0.2-2.4-0.2-3.6v-4.5h1.8v10.5h-1.9l-3.3-5.9l-1.1-2.2h-0.1
			c0.1,1.1,0.2,2.4,0.2,3.5v4.6h-1.8V88.9z"/>
		<path d="M450.5,94.1c0-3.4,2.2-5.5,5-5.5c1.5,0,2.5,0.7,3.2,1.3l-1,1.2c-0.5-0.5-1.1-0.9-2.1-0.9c-1.9,0-3.1,1.4-3.1,3.8
			c0,2.4,1.1,3.8,3.2,3.8c0.6,0,1.2-0.2,1.5-0.5v-2.3h-2v-1.5h3.6v4.6c-0.7,0.7-1.9,1.2-3.3,1.2C452.6,99.5,450.5,97.6,450.5,94.1z"
			/>
		<path d="M156,110.9h5.6v5.6H156V110.9z"/>
		<path d="M168.8,106.9h1.2v4.6h0l3.8-4.6h1.3l-2.9,3.5l3.3,5.7h-1.3l-2.7-4.8l-1.6,1.9v2.9h-1.2V106.9z"/>
		<path d="M176.8,106.2h1.2v2.7l0,1.4c0.6-0.6,1.3-1.1,2.3-1.1c1.4,0,2.1,0.9,2.1,2.7v4.3h-1.2V112c0-1.3-0.4-1.8-1.3-1.8
			c-0.7,0-1.2,0.4-1.9,1v4.9h-1.2V106.2z"/>
		<path d="M183.9,112.7c0-2.3,1.5-3.6,3.2-3.6s3.2,1.3,3.2,3.6c0,2.3-1.5,3.6-3.2,3.6S183.9,115,183.9,112.7z M186.5,105.8h1.2
			l1.6,2l-0.5,0.5l-1.7-1.6H187l-1.7,1.6l-0.5-0.5L186.5,105.8z M189,112.7c0-1.6-0.8-2.6-2-2.6s-2,1.1-2,2.6c0,1.6,0.8,2.6,2,2.6
			S189,114.3,189,112.7z"/>
		<path d="M192,109.3h1l0.1,1h0c0.6-0.6,1.3-1.1,2.3-1.1c1.4,0,2.1,0.9,2.1,2.7v4.3h-1.2V112c0-1.3-0.4-1.8-1.3-1.8
			c-0.7,0-1.2,0.4-1.9,1v4.9H192V109.3z"/>
		<path d="M199.1,117.4c0-0.6,0.4-1.1,1-1.5v-0.1c-0.3-0.2-0.6-0.6-0.6-1.1c0-0.6,0.4-1,0.7-1.3v-0.1c-0.5-0.4-0.9-1-0.9-1.8
			c0-1.5,1.2-2.4,2.6-2.4c0.4,0,0.7,0.1,1,0.2h2.4v0.9h-1.4c0.3,0.3,0.6,0.8,0.6,1.4c0,1.5-1.1,2.4-2.5,2.4c-0.3,0-0.7-0.1-1-0.2
			c-0.2,0.2-0.4,0.4-0.4,0.8c0,0.4,0.3,0.7,1.2,0.7h1.3c1.6,0,2.4,0.5,2.4,1.6c0,1.3-1.3,2.4-3.4,2.4
			C200.3,119.3,199.1,118.6,199.1,117.4z M204.3,117.1c0-0.6-0.5-0.8-1.4-0.8h-1.2c-0.3,0-0.6,0-0.9-0.1c-0.5,0.3-0.7,0.8-0.7,1.1
			c0,0.7,0.7,1.2,2,1.2C203.4,118.5,204.3,117.8,204.3,117.1z M203.4,111.6c0-1-0.6-1.6-1.4-1.6s-1.4,0.6-1.4,1.6
			c0,1,0.7,1.6,1.4,1.6C202.7,113.2,203.4,112.6,203.4,111.6z"/>
		<path d="M209.7,114v-3.8h-1v-0.9l1.1-0.1l0.1-1.9h1v1.9h1.8v0.9h-1.8v3.8c0,0.8,0.3,1.3,1.1,1.3c0.2,0,0.6-0.1,0.8-0.2l0.2,0.9
			c-0.4,0.1-0.8,0.3-1.3,0.3C210.2,116.3,209.7,115.4,209.7,114z"/>
		<path d="M214.2,106.2h1.2v2.7l0,1.4c0.6-0.6,1.3-1.1,2.3-1.1c1.4,0,2.1,0.9,2.1,2.7v4.3h-1.2V112c0-1.3-0.4-1.8-1.3-1.8
			c-0.7,0-1.2,0.4-1.9,1v4.9h-1.2V106.2z"/>
		<path d="M221.3,112.7c0-2.2,1.5-3.6,3.1-3.6c1.7,0,2.7,1.2,2.7,3.2c0,0.2,0,0.5-0.1,0.7h-4.6c0.1,1.4,1,2.4,2.3,2.4
			c0.7,0,1.2-0.2,1.7-0.5l0.4,0.8c-0.6,0.4-1.3,0.7-2.2,0.7C222.8,116.3,221.3,115,221.3,112.7z M226.1,112.2c0-1.4-0.6-2.1-1.7-2.1
			c-1,0-1.8,0.8-2,2.1H226.1z M223.8,107.6c0.5-0.1,0.8-0.3,0.8-0.7c0-0.4-0.4-0.6-1.2-0.6l0.1-0.8c1.3,0,2,0.5,2,1.3
			c0,0.8-0.8,1.2-1.6,1.3L223.8,107.6z"/>
		<path d="M231.7,106.9h2.7c1.9,0,3.2,0.6,3.2,2.3c0,0.9-0.5,1.7-1.3,2v0.1c1.1,0.2,1.9,0.9,1.9,2.2c0,1.8-1.4,2.7-3.5,2.7h-2.9
			V106.9z M234.2,110.9c1.6,0,2.2-0.6,2.2-1.5c0-1.1-0.7-1.5-2.2-1.5h-1.4v3H234.2z M234.5,115.2c1.6,0,2.5-0.6,2.5-1.8
			c0-1.1-0.9-1.7-2.5-1.7h-1.6v3.5H234.5z"/>
		<path d="M239.4,114.4c0-1.5,1.3-2.2,4.2-2.5c0-0.9-0.3-1.7-1.4-1.7c-0.8,0-1.5,0.4-2,0.7l-0.5-0.8c0.6-0.4,1.6-0.9,2.7-0.9
			c1.7,0,2.4,1.1,2.4,2.8v4.2h-1l-0.1-0.8h0c-0.6,0.5-1.4,1-2.3,1C240.3,116.3,239.4,115.6,239.4,114.4z M243.6,114.5v-1.9
			c-2.3,0.3-3.1,0.8-3.1,1.7c0,0.8,0.5,1.1,1.2,1.1C242.4,115.4,242.9,115.1,243.6,114.5z M241.8,107.6c0.5-0.1,0.8-0.3,0.8-0.7
			c0-0.4-0.4-0.6-1.2-0.6l0.1-0.8c1.3,0,2,0.5,2,1.3c0,0.8-0.8,1.2-1.6,1.3L241.8,107.6z"/>
		<path d="M246.4,112.7c0-2.3,1.5-3.6,3.2-3.6s3.2,1.3,3.2,3.6c0,2.3-1.5,3.6-3.2,3.6S246.4,115,246.4,112.7z M251.5,112.7
			c0-1.6-0.8-2.6-2-2.6s-2,1.1-2,2.6c0,1.6,0.8,2.6,2,2.6S251.5,114.3,251.5,112.7z"/>
		<path d="M257.4,106.9h1.2v3.9h4.3v-3.9h1.2v9.2h-1.2v-4.3h-4.3v4.3h-1.2V106.9z"/>
		<path d="M266.2,107.2c0-0.5,0.3-0.7,0.8-0.7c0.4,0,0.8,0.3,0.8,0.7c0,0.4-0.3,0.7-0.8,0.7C266.5,107.9,266.2,107.6,266.2,107.2z
			 M266.4,109.3h1.2v6.8h-1.2V109.3z"/>
		<path d="M269.3,112.7c0-2.2,1.5-3.6,3.1-3.6c1.7,0,2.7,1.2,2.7,3.2c0,0.2,0,0.5-0.1,0.7h-4.6c0.1,1.4,1,2.4,2.3,2.4
			c0.7,0,1.2-0.2,1.7-0.5l0.4,0.8c-0.6,0.4-1.3,0.7-2.2,0.7C270.8,116.3,269.3,115,269.3,112.7z M274.1,112.2c0-1.4-0.6-2.1-1.7-2.1
			c-1,0-1.8,0.8-2,2.1H274.1z M270.5,107.7l1.4-1.3h0.9l1.4,1.3l-0.4,0.5l-1.4-1h-0.1l-1.4,1L270.5,107.7z M273.9,106.7
			c0.3-0.1,0.6-0.3,0.6-0.5c0-0.4-0.3-0.5-1-0.6l0.1-0.6c1.1,0,1.7,0.4,1.7,1c0,0.8-0.6,1-1.3,1.2L273.9,106.7z"/>
		<path d="M276.8,109.3h1l0.1,1h0c0.6-0.6,1.3-1.2,2.1-1.2c1,0,1.6,0.5,1.9,1.3c0.7-0.8,1.4-1.3,2.2-1.3c1.4,0,2.1,0.9,2.1,2.7v4.3
			H285V112c0-1.3-0.4-1.8-1.3-1.8c-0.5,0-1.1,0.3-1.7,1v4.9h-1.2V112c0-1.3-0.4-1.8-1.3-1.8c-0.5,0-1.1,0.3-1.7,1v4.9h-1.2V109.3z"
			/>
		<path d="M292.8,112.6l-2.8-5.6h1.3l1.2,2.6c0.3,0.7,0.6,1.3,0.9,2h0.1c0.3-0.7,0.6-1.3,0.9-2l1.2-2.6h1.2l-2.8,5.6v3.6h-1.2V112.6
			z"/>
		<path d="M302.7,107.9h-2.8v-1h6.7v1h-2.8v8.2h-1.2V107.9z"/>
		<path d="M307.7,112.7c0-2.2,1.5-3.6,3.1-3.6c1.7,0,2.7,1.2,2.7,3.2c0,0.2,0,0.5-0.1,0.7h-4.6c0.1,1.4,1,2.4,2.3,2.4
			c0.7,0,1.2-0.2,1.7-0.5l0.4,0.8c-0.6,0.4-1.3,0.7-2.2,0.7C309.1,116.3,307.7,115,307.7,112.7z M312.4,112.2c0-1.4-0.6-2.1-1.7-2.1
			c-1,0-1.8,0.8-2,2.1H312.4z M308.8,107.7l1.4-1.3h0.9l1.4,1.3l-0.4,0.5l-1.4-1h-0.1l-1.4,1L308.8,107.7z M313.3,105.1l0.7,0.5
			l-1.4,1.6l-0.5-0.4L313.3,105.1z"/>
		<path d="M314.9,115.4c0-0.5,0.4-0.9,0.8-0.9c0.5,0,0.8,0.4,0.8,0.9c0,0.5-0.4,0.9-0.8,0.9C315.2,116.3,314.9,115.9,314.9,115.4z"
			/>
		<path d="M156,127.7h5.6v5.6H156V127.7z"/>
		<path d="M168,127.8l1.1,0h3.2v0.7H168V127.8z M169.1,123.7h2.3c2.8,0,4.3,1.6,4.3,4.6s-1.5,4.6-4.3,4.6h-2.4V123.7z M171.3,132
			c2.1,0,3.2-1.3,3.2-3.7s-1.1-3.6-3.2-3.6h-1v7.3H171.3z"/>
		<path d="M177.2,131.2c0-1.5,1.3-2.2,4.2-2.5c0-0.9-0.3-1.7-1.4-1.7c-0.8,0-1.5,0.4-2,0.7l-0.5-0.8c0.6-0.4,1.6-0.9,2.7-0.9
			c1.7,0,2.4,1.1,2.4,2.8v4.2h-1l-0.1-0.8h0c-0.6,0.5-1.4,1-2.3,1C178,133.1,177.2,132.4,177.2,131.2z M179.1,123.7
			c-0.4,0-0.6,0.4-0.7,1.1l-0.8,0c0-1.1,0.4-1.9,1.4-1.9c1,0,1.4,1.2,2,1.2c0.4,0,0.6-0.5,0.6-1.1l0.8,0c0,1.1-0.4,1.9-1.4,1.9
			C180.2,124.9,179.8,123.7,179.1,123.7z M181.4,131.3v-1.9c-2.3,0.3-3.1,0.8-3.1,1.7c0,0.8,0.5,1.1,1.2,1.1
			C180.2,132.2,180.7,131.9,181.4,131.3z"/>
		<path d="M187,129.5c0-2.3,1.5-3.6,3.3-3.6c0.9,0,1.5,0.4,2,0.8l-0.6,0.8c-0.4-0.4-0.8-0.6-1.4-0.6c-1.2,0-2.1,1.1-2.1,2.6
			c0,1.6,0.9,2.6,2.1,2.6c0.6,0,1.2-0.3,1.6-0.7l0.5,0.8c-0.6,0.5-1.4,0.9-2.2,0.9C188.3,133.1,187,131.8,187,129.5z"/>
		<path d="M193.3,129.5c0-2.3,1.5-3.6,3.2-3.6s3.2,1.3,3.2,3.6c0,2.3-1.5,3.6-3.2,3.6S193.3,131.8,193.3,129.5z M198.5,129.5
			c0-1.6-0.8-2.6-2-2.6s-2,1.1-2,2.6c0,1.6,0.8,2.6,2,2.6S198.5,131.1,198.5,129.5z M195.7,124.3l2-2.3l0.8,0.8l-2.2,2.1
			L195.7,124.3z"/>
		<path d="M204.2,123h1.2v2.7l0,1.4c0.6-0.6,1.3-1.1,2.3-1.1c1.4,0,2.1,0.9,2.1,2.7v4.3h-1.2v-4.2c0-1.3-0.4-1.8-1.3-1.8
			c-0.7,0-1.2,0.4-1.9,1v4.9h-1.2V123z"/>
		<path d="M211.4,129.5c0-2.3,1.5-3.6,3.2-3.6s3.2,1.3,3.2,3.6c0,2.3-1.5,3.6-3.2,3.6S211.4,131.8,211.4,129.5z M216.5,129.5
			c0-1.6-0.8-2.6-2-2.6s-2,1.1-2,2.6c0,1.6,0.8,2.6,2,2.6S216.5,131.1,216.5,129.5z"/>
		<path d="M219,131.2c0-1.5,1.3-2.2,4.2-2.5c0-0.9-0.3-1.7-1.4-1.7c-0.8,0-1.5,0.4-2,0.7l-0.5-0.8c0.6-0.4,1.6-0.9,2.7-0.9
			c1.7,0,2.4,1.1,2.4,2.8v4.2h-1l-0.1-0.8h0c-0.6,0.5-1.4,1-2.3,1C219.9,133.1,219,132.4,219,131.2z M219.8,122.8l0.7-0.1
			c0.1,0.7,0.6,1.5,1.5,1.5c0.9,0,1.4-0.7,1.5-1.5l0.7,0.1c-0.1,1-0.7,2.1-2.2,2.1C220.5,124.9,219.9,123.9,219.8,122.8z
			 M223.2,131.3v-1.9c-2.3,0.3-3.1,0.8-3.1,1.7c0,0.8,0.5,1.1,1.2,1.1C222,132.2,222.5,131.9,223.2,131.3z M221,135.1
			c0-0.4,0.3-0.7,0.8-0.7s0.8,0.3,0.8,0.7c0,0.5-0.3,0.8-0.8,0.8S221,135.5,221,135.1z"/>
		<path d="M226,129.5c0-2.3,1.5-3.6,3.3-3.6c0.9,0,1.5,0.4,2,0.8l-0.6,0.8c-0.4-0.4-0.8-0.6-1.4-0.6c-1.2,0-2.1,1.1-2.1,2.6
			c0,1.6,0.9,2.6,2.1,2.6c0.6,0,1.2-0.3,1.6-0.7l0.5,0.8c-0.6,0.5-1.4,0.9-2.2,0.9C227.4,133.1,226,131.8,226,129.5z"/>
		<path d="M235.2,129.5c0-2.3,1.5-3.6,3.3-3.6c0.9,0,1.5,0.4,2,0.8l-0.6,0.8c-0.4-0.4-0.8-0.6-1.4-0.6c-1.2,0-2.1,1.1-2.1,2.6
			c0,1.6,0.9,2.6,2.1,2.6c0.6,0,1.2-0.3,1.6-0.7l0.5,0.8c-0.6,0.5-1.4,0.9-2.2,0.9C236.6,133.1,235.2,131.8,235.2,129.5z"/>
		<path d="M242.1,123h1.2v2.7l0,1.4c0.6-0.6,1.3-1.1,2.3-1.1c1.4,0,2.1,0.9,2.1,2.7v4.3h-1.2v-4.2c0-1.3-0.4-1.8-1.3-1.8
			c-0.7,0-1.2,0.4-1.9,1v4.9h-1.2V123z"/>
		<path d="M249.6,130.4v-4.3h1.2v4.2c0,1.3,0.4,1.8,1.3,1.8c0.7,0,1.2-0.3,1.8-1.1v-4.8h1.2v6.8h-1l-0.1-1.1h0
			c-0.6,0.7-1.3,1.2-2.2,1.2C250.2,133.1,249.6,132.2,249.6,130.4z M254.2,126.1c0.7-0.1,1.2-0.4,1.2-1.3c0-0.3-0.1-0.5-0.2-0.8
			l0.9-0.4c0.2,0.3,0.3,0.7,0.3,1.1c0,1.1-0.7,1.7-1.4,1.9L254.2,126.1z"/>
		<path d="M256.9,131.2c0-1.5,1.3-2.2,4.2-2.5c0-0.9-0.3-1.7-1.4-1.7c-0.8,0-1.5,0.4-2,0.7l-0.5-0.8c0.6-0.4,1.6-0.9,2.7-0.9
			c1.7,0,2.4,1.1,2.4,2.8v4.2h-1l-0.1-0.8h0c-0.6,0.5-1.4,1-2.3,1C257.7,133.1,256.9,132.4,256.9,131.2z M261.1,131.3v-1.9
			c-2.3,0.3-3.1,0.8-3.1,1.7c0,0.8,0.5,1.1,1.2,1.1C259.9,132.2,260.4,131.9,261.1,131.3z"/>
		<path d="M266.7,129.5c0-2.3,1.5-3.6,3.3-3.6c0.9,0,1.5,0.4,2,0.8l-0.6,0.8c-0.4-0.4-0.8-0.6-1.4-0.6c-1.2,0-2.1,1.1-2.1,2.6
			c0,1.6,0.9,2.6,2.1,2.6c0.6,0,1.2-0.3,1.6-0.7l0.5,0.8c-0.6,0.5-1.4,0.9-2.2,0.9C268,133.1,266.7,131.8,266.7,129.5z"/>
		<path d="M273,129.5c0-2.3,1.5-3.6,3.2-3.6s3.2,1.3,3.2,3.6c0,2.3-1.5,3.6-3.2,3.6S273,131.8,273,129.5z M278.1,129.5
			c0-1.6-0.8-2.6-2-2.6s-2,1.1-2,2.6c0,1.6,0.8,2.6,2,2.6S278.1,131.1,278.1,129.5z M275.4,124.3l2-2.3l0.8,0.8l-2.2,2.1
			L275.4,124.3z"/>
		<path d="M283.5,128.3c0-3,1.7-4.8,4.1-4.8c1.1,0,2,0.5,2.5,1.1l-0.6,0.8c-0.5-0.5-1.1-0.9-1.9-0.9c-1.7,0-2.9,1.4-2.9,3.7
			c0,2.3,1.1,3.8,2.8,3.8c0.9,0,1.5-0.4,2.1-1l0.6,0.7c-0.7,0.8-1.6,1.3-2.8,1.3C285.2,133.1,283.5,131.3,283.5,128.3z"/>
		<path d="M291.9,123h1.2v2.7l0,1.4c0.6-0.6,1.3-1.1,2.3-1.1c1.4,0,2.1,0.9,2.1,2.7v4.3h-1.2v-4.2c0-1.3-0.4-1.8-1.3-1.8
			c-0.7,0-1.2,0.4-1.9,1v4.9h-1.2V123z"/>
		<path d="M299.5,124.4c0.4-0.1,0.8-0.3,0.8-0.7c0-0.4-0.4-0.6-1.2-0.6l0.1-0.8c1.3,0,2,0.5,2,1.3c0,0.8-0.8,1.2-1.6,1.3
			L299.5,124.4z M299.5,126.1h1.2v6.8h-1.2V126.1z"/>
		<path d="M305.3,129.8c0-2,1.4-3.3,2.9-3.3c0.8,0,1.3,0.3,1.9,0.8l0-1.2V123h1.2v10h-1l-0.1-0.8h0c-0.5,0.5-1.2,0.9-2.1,0.9
			C306.4,133.1,305.3,131.9,305.3,129.8z M310.1,131.2v-3c-0.6-0.5-1.1-0.7-1.7-0.7c-1.1,0-2,1-2,2.3c0,1.4,0.7,2.3,1.9,2.3
			C309,132.1,309.5,131.8,310.1,131.2z M307.8,124.3h4.4v0.6l-1.1,0.1h-3.4V124.3z"/>
		<path d="M313.3,124c0-0.5,0.3-0.7,0.8-0.7c0.4,0,0.8,0.3,0.8,0.7c0,0.4-0.3,0.7-0.8,0.7C313.7,124.7,313.3,124.4,313.3,124z
			 M313.4,135.1c0-0.4,0.3-0.7,0.8-0.7c0.4,0,0.8,0.3,0.8,0.7c0,0.5-0.3,0.8-0.8,0.8C313.7,135.8,313.4,135.5,313.4,135.1z
			 M313.5,126.1h1.2v6.8h-1.2V126.1z"/>
		<path d="M317,126.1h1l0.1,1h0c0.6-0.6,1.3-1.1,2.3-1.1c1.4,0,2.1,0.9,2.1,2.7v4.3h-1.2v-4.2c0-1.3-0.4-1.8-1.3-1.8
			c-0.7,0-1.2,0.4-1.9,1v4.9H317V126.1z"/>
		<path d="M324.7,123h1.2v2.7l0,1.4c0.6-0.6,1.3-1.1,2.3-1.1c1.4,0,2.1,0.9,2.1,2.7v4.3h-1.2v-4.2c0-1.3-0.4-1.8-1.3-1.8
			c-0.7,0-1.2,0.4-1.9,1v4.9h-1.2V123z"/>
		<path d="M336.8,128.2l-2.5-4.4h1.3l1.3,2.4c0.2,0.4,0.4,0.8,0.7,1.3h0.1c0.2-0.5,0.4-0.9,0.6-1.3l1.2-2.4h1.2l-2.5,4.5l2.7,4.7
			h-1.3l-1.3-2.5c-0.2-0.5-0.5-0.9-0.8-1.5h-0.1c-0.3,0.6-0.5,1-0.7,1.5l-1.3,2.5h-1.2L336.8,128.2z"/>
		<path d="M341.7,129.5c0-2.2,1.5-3.6,3.1-3.6c1.7,0,2.7,1.2,2.7,3.2c0,0.2,0,0.5-0.1,0.7h-4.6c0.1,1.4,1,2.4,2.3,2.4
			c0.7,0,1.2-0.2,1.7-0.5l0.4,0.8c-0.6,0.4-1.3,0.7-2.2,0.7C343.2,133.1,341.7,131.8,341.7,129.5z M346.5,129c0-1.4-0.6-2.1-1.7-2.1
			c-1,0-1.8,0.8-2,2.1H346.5z M344,124.3l2-2.3l0.8,0.8l-2.2,2.1L344,124.3z"/>
		<path d="M349.4,130.8v-3.8h-1v-0.9l1.1-0.1l0.1-1.9h1v1.9h1.8v0.9h-1.8v3.8c0,0.8,0.3,1.3,1.1,1.3c0.2,0,0.6-0.1,0.8-0.2l0.2,0.9
			c-0.4,0.1-0.8,0.3-1.3,0.3C349.9,133.1,349.4,132.2,349.4,130.8z"/>
		<path d="M356.7,126.1h1l0.1,1h0c0.6-0.6,1.3-1.1,2.3-1.1c1.4,0,2.1,0.9,2.1,2.7v4.3H361v-4.2c0-1.3-0.4-1.8-1.3-1.8
			c-0.7,0-1.2,0.4-1.9,1v4.9h-1.2V126.1z"/>
		<path d="M363.9,134.2c0-0.6,0.4-1.1,1-1.5v-0.1c-0.3-0.2-0.6-0.6-0.6-1.1c0-0.6,0.4-1,0.7-1.3v-0.1c-0.5-0.4-0.9-1-0.9-1.8
			c0-1.5,1.2-2.4,2.6-2.4c0.4,0,0.7,0.1,1,0.2h2.4v0.9h-1.4c0.3,0.3,0.6,0.8,0.6,1.4c0,1.5-1.1,2.4-2.5,2.4c-0.3,0-0.7-0.1-1-0.2
			c-0.2,0.2-0.4,0.4-0.4,0.8c0,0.4,0.3,0.7,1.2,0.7h1.3c1.6,0,2.4,0.5,2.4,1.6c0,1.3-1.3,2.4-3.4,2.4
			C365,136.1,363.9,135.4,363.9,134.2z M369,133.9c0-0.6-0.5-0.8-1.4-0.8h-1.2c-0.3,0-0.6,0-0.9-0.1c-0.5,0.3-0.7,0.8-0.7,1.1
			c0,0.7,0.7,1.2,2,1.2C368.1,135.3,369,134.6,369,133.9z M368.1,128.4c0-1-0.6-1.6-1.4-1.6s-1.4,0.6-1.4,1.6c0,1,0.7,1.6,1.4,1.6
			C367.5,130,368.1,129.4,368.1,128.4z"/>
		<path d="M371.4,123h1.2v2.7l0,1.4c0.6-0.6,1.3-1.1,2.3-1.1c1.4,0,2.1,0.9,2.1,2.7v4.3h-1.2v-4.2c0-1.3-0.4-1.8-1.3-1.8
			c-0.7,0-1.2,0.4-1.9,1v4.9h-1.2V123z"/>
		<path d="M378.8,124c0-0.5,0.3-0.7,0.8-0.7c0.4,0,0.8,0.3,0.8,0.7c0,0.4-0.3,0.7-0.8,0.7C379.2,124.7,378.8,124.4,378.8,124z
			 M379.1,126.1h1.2v6.8h-1.2V126.1z"/>
		<path d="M382,129.5c0-2.2,1.5-3.6,3.1-3.6c1.7,0,2.7,1.2,2.7,3.2c0,0.2,0,0.5-0.1,0.7h-4.6c0.1,1.4,1,2.4,2.3,2.4
			c0.7,0,1.2-0.2,1.7-0.5l0.4,0.8c-0.6,0.4-1.3,0.7-2.2,0.7C383.4,133.1,382,131.8,382,129.5z M384.5,122.6h1.2l1.6,2l-0.5,0.5
			l-1.7-1.6H385l-1.7,1.6l-0.5-0.5L384.5,122.6z M386.8,129c0-1.4-0.6-2.1-1.7-2.1c-1,0-1.8,0.8-2,2.1H386.8z M384.3,135.1
			c0-0.4,0.3-0.7,0.8-0.7c0.4,0,0.8,0.3,0.8,0.7c0,0.5-0.3,0.8-0.8,0.8C384.6,135.8,384.3,135.5,384.3,135.1z"/>
		<path d="M389.4,126.1h1l0.1,1h0c0.6-0.6,1.3-1.2,2.1-1.2c1,0,1.6,0.5,1.9,1.3c0.7-0.8,1.4-1.3,2.2-1.3c1.4,0,2.1,0.9,2.1,2.7v4.3
			h-1.2v-4.2c0-1.3-0.4-1.8-1.3-1.8c-0.5,0-1.1,0.3-1.7,1v4.9h-1.2v-4.2c0-1.3-0.4-1.8-1.3-1.8c-0.5,0-1.1,0.3-1.7,1v4.9h-1.2V126.1
			z"/>
		<path d="M403.3,129.5c0-2.3,1.5-3.6,3.3-3.6c0.9,0,1.5,0.4,2,0.8l-0.6,0.8c-0.4-0.4-0.8-0.6-1.4-0.6c-1.2,0-2.1,1.1-2.1,2.6
			c0,1.6,0.9,2.6,2.1,2.6c0.6,0,1.2-0.3,1.6-0.7l0.5,0.8c-0.6,0.5-1.4,0.9-2.2,0.9C404.7,133.1,403.3,131.8,403.3,129.5z"/>
		<path d="M409.8,131.2c0-1.5,1.3-2.2,4.2-2.5c0-0.9-0.3-1.7-1.4-1.7c-0.8,0-1.5,0.4-2,0.7l-0.5-0.8c0.6-0.4,1.6-0.9,2.7-0.9
			c1.7,0,2.4,1.1,2.4,2.8v4.2h-1l-0.1-0.8h0c-0.6,0.5-1.4,1-2.3,1C410.7,133.1,409.8,132.4,409.8,131.2z M412.2,122.6h1.2l1.6,2
			l-0.5,0.5l-1.7-1.6h-0.1l-1.7,1.6l-0.5-0.5L412.2,122.6z M414,131.3v-1.9c-2.3,0.3-3.1,0.8-3.1,1.7c0,0.8,0.5,1.1,1.2,1.1
			C412.8,132.2,413.3,131.9,414,131.3z M411.8,135.1c0-0.4,0.3-0.7,0.8-0.7s0.8,0.3,0.8,0.7c0,0.5-0.3,0.8-0.8,0.8
			S411.8,135.5,411.8,135.1z"/>
		<path d="M417.3,126.1h1l0.1,1h0c0.6-0.6,1.3-1.1,2.3-1.1c1.4,0,2.1,0.9,2.1,2.7v4.3h-1.2v-4.2c0-1.3-0.4-1.8-1.3-1.8
			c-0.7,0-1.2,0.4-1.9,1v4.9h-1.2V126.1z"/>
		<path d="M427.7,131.6V123h1.2v8.7c0,0.4,0.2,0.5,0.3,0.5c0.1,0,0.1,0,0.3,0l0.2,0.9c-0.2,0.1-0.4,0.1-0.7,0.1
			C428.1,133.1,427.7,132.6,427.7,131.6z"/>
		<path d="M430.9,131.2c0-1.5,1.3-2.2,4.2-2.5c0-0.9-0.3-1.7-1.4-1.7c-0.8,0-1.5,0.4-2,0.7l-0.5-0.8c0.6-0.4,1.6-0.9,2.7-0.9
			c1.7,0,2.4,1.1,2.4,2.8v4.2h-1l-0.1-0.8h0c-0.6,0.5-1.4,1-2.3,1C431.7,133.1,430.9,132.4,430.9,131.2z M433.3,122.6h1.2l1.6,2
			l-0.5,0.5l-1.7-1.6h-0.1l-1.7,1.6l-0.5-0.5L433.3,122.6z M435.1,131.3v-1.9c-2.3,0.3-3.1,0.8-3.1,1.7c0,0.8,0.5,1.1,1.2,1.1
			C433.9,132.2,434.4,131.9,435.1,131.3z"/>
		<path d="M438.4,126.1h1l0.1,1h0c0.6-0.6,1.3-1.2,2.1-1.2c1,0,1.6,0.5,1.9,1.3c0.7-0.8,1.4-1.3,2.2-1.3c1.4,0,2.1,0.9,2.1,2.7v4.3
			h-1.2v-4.2c0-1.3-0.4-1.8-1.3-1.8c-0.5,0-1.1,0.3-1.7,1v4.9h-1.2v-4.2c0-1.3-0.4-1.8-1.3-1.8c-0.5,0-1.1,0.3-1.7,1v4.9h-1.2V126.1
			z"/>
		<path d="M452,132.2l0.6-0.8c0.6,0.5,1.2,0.8,2,0.8c0.9,0,1.3-0.5,1.3-1.1c0-0.7-0.8-1-1.6-1.3c-1-0.3-2-0.8-2-2
			c0-1.1,0.9-1.9,2.3-1.9c0.8,0,1.6,0.3,2.1,0.8l-0.6,0.7c-0.5-0.3-1-0.6-1.6-0.6c-0.9,0-1.3,0.5-1.3,1c0,0.6,0.7,0.9,1.5,1.2
			c1,0.4,2.1,0.8,2.1,2.1c0,1.1-0.9,2-2.5,2C453.6,133.1,452.7,132.7,452,132.2z"/>
		<path d="M458.2,131.2c0-1.5,1.3-2.2,4.2-2.5c0-0.9-0.3-1.7-1.4-1.7c-0.8,0-1.5,0.4-2,0.7l-0.5-0.8c0.6-0.4,1.6-0.9,2.7-0.9
			c1.7,0,2.4,1.1,2.4,2.8v4.2h-1l-0.1-0.8h0c-0.6,0.5-1.4,1-2.3,1C459.1,133.1,458.2,132.4,458.2,131.2z M459.2,122.8l0.8-0.8l2,2.3
			l-0.6,0.6L459.2,122.8z M462.4,131.3v-1.9c-2.3,0.3-3.1,0.8-3.1,1.7c0,0.8,0.5,1.1,1.2,1.1C461.2,132.2,461.7,131.9,462.4,131.3z"
			/>
		<path d="M465.7,126.1h1l0.1,1h0c0.6-0.6,1.3-1.1,2.3-1.1c1.4,0,2.1,0.9,2.1,2.7v4.3H470v-4.2c0-1.3-0.4-1.8-1.3-1.8
			c-0.7,0-1.2,0.4-1.9,1v4.9h-1.2V126.1z"/>
		<path d="M472.8,134.2c0-0.6,0.4-1.1,1-1.5v-0.1c-0.3-0.2-0.6-0.6-0.6-1.1c0-0.6,0.4-1,0.7-1.3v-0.1c-0.5-0.4-0.9-1-0.9-1.8
			c0-1.5,1.2-2.4,2.6-2.4c0.4,0,0.7,0.1,1,0.2h2.4v0.9h-1.4c0.3,0.3,0.6,0.8,0.6,1.4c0,1.5-1.1,2.4-2.5,2.4c-0.3,0-0.7-0.1-1-0.2
			c-0.2,0.2-0.4,0.4-0.4,0.8c0,0.4,0.3,0.7,1.2,0.7h1.3c1.6,0,2.4,0.5,2.4,1.6c0,1.3-1.3,2.4-3.4,2.4
			C474,136.1,472.8,135.4,472.8,134.2z M478,133.9c0-0.6-0.5-0.8-1.4-0.8h-1.2c-0.3,0-0.6,0-0.9-0.1c-0.5,0.3-0.7,0.8-0.7,1.1
			c0,0.7,0.7,1.2,2,1.2C477.1,135.3,478,134.6,478,133.9z M477.1,128.4c0-1-0.6-1.6-1.4-1.6s-1.4,0.6-1.4,1.6c0,1,0.7,1.6,1.4,1.6
			C476.4,130,477.1,129.4,477.1,128.4z"/>
		<path d="M480.2,132.2c0-0.5,0.4-0.9,0.8-0.9c0.5,0,0.8,0.4,0.8,0.9c0,0.5-0.4,0.9-0.8,0.9C480.6,133.1,480.2,132.7,480.2,132.2z"
			/>
	</g>
</g>
<rect x="94.7" y="184.3" style="fill:#E7E7E7;" width="411.7" height="68.3"/>
<rect x="94.5" y="291.3" style="fill:#E7E7E7;" width="411.8" height="52.7"/>
<g>
	<g>
		<path d="M103.5,196.5h2.9c1.9,0,3.3,0.6,3.3,2.3c0,0.9-0.5,1.7-1.3,2v0.1c1,0.2,1.8,0.9,1.8,2.2c0,1.8-1.5,2.7-3.5,2.7h-3.2V196.5
			z M106.3,200.3c1.3,0,1.8-0.5,1.8-1.3c0-0.9-0.6-1.2-1.8-1.2h-1.2v2.5H106.3z M106.5,204.4c1.3,0,2.1-0.5,2.1-1.5
			c0-1-0.7-1.4-2.1-1.4h-1.4v2.9H106.5z"/>
		<path d="M111.6,203.1v-4.3h1.6v4.1c0,1.1,0.3,1.6,1.1,1.6c0.6,0,1-0.3,1.5-1v-4.7h1.6v6.9h-1.3l-0.1-1h0c-0.6,0.7-1.3,1.2-2.2,1.2
			C112.3,205.8,111.6,204.8,111.6,203.1z M116.3,198.8c0.6-0.1,1.2-0.3,1.2-1.3c0-0.3-0.1-0.6-0.2-0.8l1.2-0.5
			c0.2,0.3,0.4,0.8,0.4,1.2c0,1.1-0.7,1.7-1.4,2L116.3,198.8z"/>
		<path d="M119,202.2c0-2.3,1.6-3.6,3.3-3.6s3.3,1.3,3.3,3.6c0,2.3-1.6,3.6-3.3,3.6S119,204.5,119,202.2z M123.9,202.2
			c0-1.4-0.6-2.3-1.6-2.3c-1,0-1.6,0.9-1.6,2.3s0.6,2.3,1.6,2.3C123.3,204.5,123.9,203.6,123.9,202.2z M121.5,196.8l2.1-2.4l1.1,1.1
			l-2.4,2.2L121.5,196.8z M123.6,198.9c0.7-0.1,1.1-0.5,1.1-1.3c0-0.3-0.1-0.6-0.2-0.8l1.2-0.5c0.2,0.3,0.4,0.8,0.4,1.2
			c0,1.1-0.8,1.7-1.7,2L123.6,198.9z"/>
		<path d="M126.7,202.2c0-2.3,1.6-3.6,3.5-3.6c0.9,0,1.5,0.3,2,0.8l-0.8,1c-0.4-0.3-0.7-0.5-1.1-0.5c-1.1,0-1.9,0.9-1.9,2.3
			s0.8,2.3,1.8,2.3c0.5,0,1-0.3,1.4-0.6l0.7,1.1c-0.6,0.6-1.5,0.8-2.2,0.8C128.2,205.8,126.7,204.5,126.7,202.2z"/>
		<path d="M136.5,204.3h2v-5.8h-1.6v-1c0.9-0.2,1.5-0.4,2.1-0.7h1.2v7.6h1.8v1.3h-5.4V204.3z"/>
		<path d="M143.5,200c0-0.6,0.5-1.1,1-1.1c0.6,0,1,0.5,1,1.1c0,0.6-0.5,1.1-1,1.1C143.9,201,143.5,200.6,143.5,200z M143.5,204.7
			c0-0.6,0.5-1.1,1-1.1c0.6,0,1,0.5,1,1.1c0,0.6-0.5,1.1-1,1.1C143.9,205.8,143.5,205.4,143.5,204.7z"/>
		<path d="M102.3,207.1v-0.7h44.1v0.7H102.3z"/>
		<path d="M139.1,217.8c0-2.9,1.6-4.7,3.9-4.7s3.9,1.8,3.9,4.7c0,2.9-1.6,4.8-3.9,4.8S139.1,220.8,139.1,217.8z M145.7,217.8
			c0-2.3-1.1-3.7-2.7-3.7s-2.7,1.4-2.7,3.7c0,2.3,1.1,3.8,2.7,3.8S145.7,220.2,145.7,217.8z M142.3,222.4l1.2-0.1
			c0.4,1,1.3,1.5,2.4,1.5c0.4,0,0.7-0.1,1-0.1l0.2,0.9c-0.3,0.1-0.8,0.2-1.3,0.2C144,224.8,142.8,223.8,142.3,222.4z"/>
		<path d="M148.7,220v-4.3h1.2v4.2c0,1.3,0.4,1.8,1.3,1.8c0.7,0,1.2-0.3,1.8-1.1v-4.8h1.2v6.8h-1l-0.1-1.1h0
			c-0.6,0.7-1.3,1.2-2.2,1.2C149.3,222.6,148.7,221.7,148.7,220z"/>
		<path d="M155.7,225.3l0.2-0.9c0.1,0,0.3,0.1,0.5,0.1c0.8,0,1.3-0.6,1.5-1.5l0.2-0.5l-2.7-6.8h1.2l1.4,3.8c0.2,0.6,0.4,1.3,0.7,1.9
			h0.1c0.2-0.6,0.4-1.3,0.6-1.9l1.2-3.8h1.1l-2.6,7.4c-0.5,1.4-1.2,2.4-2.5,2.4C156.2,225.4,155.9,225.3,155.7,225.3z M157.9,213.9
			l2-2.3l0.8,0.8l-2.2,2.1L157.9,213.9z"/>
		<path d="M165.7,212.5h1.1v6.8h0l2.9-3.6h1.3l-2.3,2.7l2.6,4.1h-1.3l-2-3.3l-1.3,1.5v1.8h-1.1V212.5z"/>
		<path d="M172.7,212.5h1.2v2.7l0,1.4c0.6-0.6,1.3-1.1,2.3-1.1c1.4,0,2.1,0.9,2.1,2.7v4.3H177v-4.2c0-1.3-0.4-1.8-1.3-1.8
			c-0.7,0-1.2,0.4-1.9,1v4.9h-1.2V212.5z"/>
		<path d="M179.9,220.7c0-1.5,1.3-2.2,4.2-2.5c0-0.9-0.3-1.7-1.4-1.7c-0.8,0-1.5,0.4-2,0.7l-0.5-0.8c0.6-0.4,1.6-0.9,2.7-0.9
			c1.7,0,2.4,1.1,2.4,2.8v4.2h-1l-0.1-0.8h0c-0.6,0.5-1.4,1-2.3,1C180.7,222.6,179.9,221.9,179.9,220.7z M184,220.8v-1.9
			c-2.3,0.3-3.1,0.8-3.1,1.7c0,0.8,0.5,1.1,1.2,1.1C182.8,221.7,183.4,221.4,184,220.8z M182,213.9l2-2.3l0.8,0.8l-2.2,2.1
			L182,213.9z"/>
		<path d="M186.8,219.1c0-2.3,1.5-3.6,3.3-3.6c0.9,0,1.5,0.4,2,0.8l-0.6,0.8c-0.4-0.4-0.8-0.6-1.4-0.6c-1.2,0-2.1,1.1-2.1,2.6
			c0,1.6,0.9,2.6,2.1,2.6c0.6,0,1.2-0.3,1.6-0.7l0.5,0.8c-0.6,0.5-1.4,0.9-2.2,0.9C188.2,222.6,186.8,221.3,186.8,219.1z"/>
		<path d="M193.7,212.5h1.2v2.7l0,1.4c0.6-0.6,1.3-1.1,2.3-1.1c1.4,0,2.1,0.9,2.1,2.7v4.3H198v-4.2c0-1.3-0.4-1.8-1.3-1.8
			c-0.7,0-1.2,0.4-1.9,1v4.9h-1.2V212.5z"/>
		<path d="M203.7,219.3c0-2,1.4-3.3,2.9-3.3c0.8,0,1.3,0.3,1.9,0.8l0-1.2v-3.2h1.2v10h-1l-0.1-0.8h0c-0.5,0.5-1.2,0.9-2.1,0.9
			C204.8,222.6,203.7,221.4,203.7,219.3z M208.5,220.7v-3c-0.6-0.5-1.1-0.7-1.7-0.7c-1.1,0-2,1-2,2.3c0,1.4,0.7,2.3,1.9,2.3
			C207.3,221.7,207.9,221.4,208.5,220.7z M206.2,213.8h4.4v0.6l-1.1,0.1h-3.4V213.8z"/>
		<path d="M211.4,219.1c0-2.2,1.5-3.6,3.1-3.6c1.7,0,2.7,1.2,2.7,3.2c0,0.2,0,0.5-0.1,0.7h-4.6c0.1,1.4,1,2.4,2.3,2.4
			c0.7,0,1.2-0.2,1.7-0.5l0.4,0.8c-0.6,0.4-1.3,0.7-2.2,0.7C212.8,222.6,211.4,221.3,211.4,219.1z M216.2,218.5
			c0-1.4-0.6-2.1-1.7-2.1c-1,0-1.8,0.8-2,2.1H216.2z M212.6,214l1.4-1.3h0.9l1.4,1.3l-0.4,0.5l-1.4-1h-0.1l-1.4,1L212.6,214z
			 M217.1,211.5l0.7,0.5l-1.4,1.6l-0.5-0.4L217.1,211.5z"/>
		<path d="M218.8,215.7h1l0.1,1h0c0.6-0.6,1.3-1.1,2.3-1.1c1.4,0,2.1,0.9,2.1,2.7v4.3h-1.2v-4.2c0-1.3-0.4-1.8-1.3-1.8
			c-0.7,0-1.2,0.4-1.9,1v4.9h-1.2V215.7z"/>
		<path d="M229.4,213.3h2.6c2.1,0,3.5,0.7,3.5,2.7c0,1.9-1.4,2.8-3.4,2.8h-1.5v3.6h-1.2V213.3z M231.9,217.9c1.6,0,2.4-0.6,2.4-1.9
			c0-1.3-0.8-1.8-2.4-1.8h-1.3v3.6H231.9z"/>
		<path d="M237.2,212.5h1.2v2.7l0,1.4c0.6-0.6,1.3-1.1,2.3-1.1c1.4,0,2.1,0.9,2.1,2.7v4.3h-1.2v-4.2c0-1.3-0.4-1.8-1.3-1.8
			c-0.7,0-1.2,0.4-1.9,1v4.9h-1.2V212.5z"/>
		<path d="M244.3,219.1c0-2.3,1.5-3.6,3.2-3.6s3.2,1.3,3.2,3.6c0,2.3-1.5,3.6-3.2,3.6S244.3,221.3,244.3,219.1z M245.5,212.3
			l0.8-0.8l2,2.3l-0.6,0.6L245.5,212.3z M249.5,219.1c0-1.6-0.8-2.6-2-2.6s-2,1.1-2,2.6c0,1.6,0.8,2.6,2,2.6
			S249.5,220.6,249.5,219.1z"/>
		<path d="M252.4,215.7h1l0.1,1h0c0.6-0.6,1.3-1.1,2.3-1.1c1.4,0,2.1,0.9,2.1,2.7v4.3h-1.2v-4.2c0-1.3-0.4-1.8-1.3-1.8
			c-0.7,0-1.2,0.4-1.9,1v4.9h-1.2V215.7z"/>
		<path d="M259.6,223.8c0-0.6,0.4-1.1,1-1.5v-0.1c-0.3-0.2-0.6-0.6-0.6-1.1c0-0.6,0.4-1,0.7-1.3v-0.1c-0.5-0.4-0.9-1-0.9-1.8
			c0-1.5,1.2-2.4,2.6-2.4c0.4,0,0.7,0.1,1,0.2h2.4v0.9h-1.4c0.3,0.3,0.6,0.8,0.6,1.4c0,1.5-1.1,2.4-2.5,2.4c-0.3,0-0.7-0.1-1-0.2
			c-0.2,0.2-0.4,0.4-0.4,0.8c0,0.4,0.3,0.7,1.2,0.7h1.3c1.6,0,2.4,0.5,2.4,1.6c0,1.3-1.3,2.4-3.4,2.4
			C260.7,225.6,259.6,224.9,259.6,223.8z M264.7,223.4c0-0.6-0.5-0.8-1.4-0.8h-1.2c-0.3,0-0.6,0-0.9-0.1c-0.5,0.3-0.7,0.8-0.7,1.1
			c0,0.7,0.7,1.2,2,1.2C263.8,224.8,264.7,224.1,264.7,223.4z M263.8,217.9c0-1-0.6-1.6-1.4-1.6s-1.4,0.6-1.4,1.6
			c0,1,0.7,1.6,1.4,1.6C263.2,219.5,263.8,218.9,263.8,217.9z"/>
		<path d="M269.4,221.8c2.7-2.7,4.2-4.3,4.2-5.7c0-1-0.6-1.7-1.7-1.7c-0.7,0-1.4,0.5-1.9,1.1l-0.7-0.7c0.7-0.8,1.6-1.4,2.7-1.4
			c1.7,0,2.7,1,2.7,2.6c0,1.7-1.5,3.3-3.6,5.6c0.5,0,1-0.1,1.5-0.1h2.6v1h-5.8V221.8z"/>
		<path d="M276.3,221.8c2.7-2.7,4.2-4.3,4.2-5.7c0-1-0.6-1.7-1.7-1.7c-0.7,0-1.4,0.5-1.9,1.1l-0.7-0.7c0.7-0.8,1.6-1.4,2.7-1.4
			c1.7,0,2.7,1,2.7,2.6c0,1.7-1.5,3.3-3.6,5.6c0.5,0,1-0.1,1.5-0.1h2.6v1h-5.8V221.8z"/>
		<path d="M286.2,219.3c0-2,1.4-3.3,2.9-3.3c0.8,0,1.3,0.3,1.9,0.8l0-1.2v-3.2h1.2v10h-1l-0.1-0.8h0c-0.5,0.5-1.2,0.9-2.1,0.9
			C287.3,222.6,286.2,221.4,286.2,219.3z M291,220.7v-3c-0.6-0.5-1.1-0.7-1.7-0.7c-1.1,0-2,1-2,2.3c0,1.4,0.7,2.3,1.9,2.3
			C289.9,221.7,290.4,221.4,291,220.7z M288.7,213.8h4.4v0.6l-1.1,0.1h-3.4V213.8z"/>
		<path d="M293.9,219.1c0-2.2,1.5-3.6,3.1-3.6c1.7,0,2.7,1.2,2.7,3.2c0,0.2,0,0.5-0.1,0.7h-4.6c0.1,1.4,1,2.4,2.3,2.4
			c0.7,0,1.2-0.2,1.7-0.5l0.4,0.8c-0.6,0.4-1.3,0.7-2.2,0.7C295.4,222.6,293.9,221.3,293.9,219.1z M298.7,218.5
			c0-1.4-0.6-2.1-1.7-2.1c-1,0-1.8,0.8-2,2.1H298.7z M295.1,214l1.4-1.3h0.9l1.4,1.3l-0.4,0.5l-1.4-1H297l-1.4,1L295.1,214z
			 M298.5,213.1c0.3-0.1,0.6-0.3,0.6-0.5c0-0.4-0.3-0.5-1-0.6l0.1-0.6c1.1,0,1.7,0.4,1.7,1c0,0.8-0.6,1-1.3,1.2L298.5,213.1z"/>
		<path d="M304.2,215.7h1l0.1,1h0c0.6-0.6,1.3-1.1,2.3-1.1c1.4,0,2.1,0.9,2.1,2.7v4.3h-1.2v-4.2c0-1.3-0.4-1.8-1.3-1.8
			c-0.7,0-1.2,0.4-1.9,1v4.9h-1.2V215.7z"/>
		<path d="M311.8,212.5h1.2v2.7l0,1.4c0.6-0.6,1.3-1.1,2.3-1.1c1.4,0,2.1,0.9,2.1,2.7v4.3h-1.2v-4.2c0-1.3-0.4-1.8-1.3-1.8
			c-0.7,0-1.2,0.4-1.9,1v4.9h-1.2V212.5z"/>
		<path d="M319,220.7c0-1.5,1.3-2.2,4.2-2.5c0-0.9-0.3-1.7-1.4-1.7c-0.8,0-1.5,0.4-2,0.7l-0.5-0.8c0.6-0.4,1.6-0.9,2.7-0.9
			c1.7,0,2.4,1.1,2.4,2.8v4.2h-1l-0.1-0.8h0c-0.6,0.5-1.4,1-2.3,1C319.9,222.6,319,221.9,319,220.7z M321.4,212.1h1.2l1.6,2
			l-0.5,0.5l-1.7-1.6h-0.1l-1.7,1.6l-0.5-0.5L321.4,212.1z M323.2,220.8v-1.9c-2.3,0.3-3.1,0.8-3.1,1.7c0,0.8,0.5,1.1,1.2,1.1
			C322,221.7,322.5,221.4,323.2,220.8z M321,224.6c0-0.4,0.3-0.7,0.8-0.7s0.8,0.3,0.8,0.7c0,0.5-0.3,0.8-0.8,0.8S321,225,321,224.6z
			"/>
		<path d="M326.5,215.7h1l0.1,0.8h0c0.6-0.5,1.4-1,2.2-1c1.8,0,2.7,1.4,2.7,3.5c0,2.3-1.4,3.7-2.9,3.7c-0.6,0-1.3-0.3-1.9-0.8l0,1.2
			v2.3h-1.2V215.7z M331.3,219c0-1.5-0.5-2.5-1.8-2.5c-0.6,0-1.2,0.3-1.8,0.9v3.6c0.6,0.5,1.2,0.7,1.7,0.7
			C330.4,221.7,331.3,220.6,331.3,219z"/>
		<path d="M337.3,220.4v-3.8h-1v-0.9l1.1-0.1l0.1-1.9h1v1.9h1.8v0.9h-1.8v3.8c0,0.8,0.3,1.3,1.1,1.3c0.2,0,0.6-0.1,0.8-0.2l0.2,0.9
			c-0.4,0.1-0.8,0.3-1.3,0.3C337.8,222.6,337.3,221.7,337.3,220.4z"/>
		<path d="M341.8,212.5h1.2v2.7l0,1.4c0.6-0.6,1.3-1.1,2.3-1.1c1.4,0,2.1,0.9,2.1,2.7v4.3h-1.2v-4.2c0-1.3-0.4-1.8-1.3-1.8
			c-0.7,0-1.2,0.4-1.9,1v4.9h-1.2V212.5z"/>
		<path d="M348.9,219.1c0-2.3,1.5-3.6,3.2-3.6s3.2,1.3,3.2,3.6c0,2.3-1.5,3.6-3.2,3.6S348.9,221.3,348.9,219.1z M351.5,212.1h1.2
			l1.6,2l-0.5,0.5l-1.7-1.6H352l-1.7,1.6l-0.5-0.5L351.5,212.1z M354,219.1c0-1.6-0.8-2.6-2-2.6s-2,1.1-2,2.6c0,1.6,0.8,2.6,2,2.6
			S354,220.6,354,219.1z"/>
		<path d="M357,215.7h1l0.1,1h0c0.6-0.6,1.3-1.1,2.3-1.1c1.4,0,2.1,0.9,2.1,2.7v4.3h-1.2v-4.2c0-1.3-0.4-1.8-1.3-1.8
			c-0.7,0-1.2,0.4-1.9,1v4.9H357V215.7z"/>
		<path d="M364.1,223.8c0-0.6,0.4-1.1,1-1.5v-0.1c-0.3-0.2-0.6-0.6-0.6-1.1c0-0.6,0.4-1,0.7-1.3v-0.1c-0.5-0.4-0.9-1-0.9-1.8
			c0-1.5,1.2-2.4,2.6-2.4c0.4,0,0.7,0.1,1,0.2h2.4v0.9h-1.4c0.3,0.3,0.6,0.8,0.6,1.4c0,1.5-1.1,2.4-2.5,2.4c-0.3,0-0.7-0.1-1-0.2
			c-0.2,0.2-0.4,0.4-0.4,0.8c0,0.4,0.3,0.7,1.2,0.7h1.3c1.6,0,2.4,0.5,2.4,1.6c0,1.3-1.3,2.4-3.4,2.4
			C365.3,225.6,364.1,224.9,364.1,223.8z M369.3,223.4c0-0.6-0.5-0.8-1.4-0.8h-1.2c-0.3,0-0.6,0-0.9-0.1c-0.5,0.3-0.7,0.8-0.7,1.1
			c0,0.7,0.7,1.2,2,1.2C368.4,224.8,369.3,224.1,369.3,223.4z M368.4,217.9c0-1-0.6-1.6-1.4-1.6s-1.4,0.6-1.4,1.6
			c0,1,0.7,1.6,1.4,1.6C367.7,219.5,368.4,218.9,368.4,217.9z"/>
		<path d="M374.7,220.4v-3.8h-1v-0.9l1.1-0.1l0.1-1.9h1v1.9h1.8v0.9h-1.8v3.8c0,0.8,0.3,1.3,1.1,1.3c0.2,0,0.6-0.1,0.8-0.2l0.2,0.9
			c-0.4,0.1-0.8,0.3-1.3,0.3C375.2,222.6,374.7,221.7,374.7,220.4z"/>
		<path d="M379,213.5c0-0.5,0.3-0.7,0.8-0.7c0.4,0,0.8,0.3,0.8,0.7c0,0.4-0.3,0.7-0.8,0.7C379.4,214.3,379,213.9,379,213.5z
			 M379.2,215.7h1.2v6.8h-1.2V215.7z"/>
		<path d="M382.7,215.7h1l0.1,1h0c0.6-0.6,1.3-1.1,2.3-1.1c1.4,0,2.1,0.9,2.1,2.7v4.3H387v-4.2c0-1.3-0.4-1.8-1.3-1.8
			c-0.7,0-1.2,0.4-1.9,1v4.9h-1.2V215.7z"/>
		<path d="M389.9,224.2c0.8-0.3,1.3-1,1.3-1.7l-0.1-1l0.6,0.8c-0.2,0.2-0.4,0.2-0.6,0.2c-0.4,0-0.8-0.3-0.8-0.8
			c0-0.5,0.4-0.8,0.9-0.8c0.6,0,1,0.5,1,1.4c0,1.2-0.7,2.2-1.8,2.6L389.9,224.2z"/>
		<path d="M396.8,220.4v-3.8h-1v-0.9l1.1-0.1l0.1-1.9h1v1.9h1.8v0.9H398v3.8c0,0.8,0.3,1.3,1.1,1.3c0.2,0,0.6-0.1,0.8-0.2l0.2,0.9
			c-0.4,0.1-0.8,0.3-1.3,0.3C397.3,222.6,396.8,221.7,396.8,220.4z"/>
		<path d="M401.3,220v-4.3h1.2v4.2c0,1.3,0.4,1.8,1.3,1.8c0.7,0,1.2-0.3,1.8-1.1v-4.8h1.2v6.8h-1l-0.1-1.1h0
			c-0.6,0.7-1.3,1.2-2.2,1.2C401.9,222.6,401.3,221.7,401.3,220z M405.8,215.7c0.7-0.1,1.2-0.4,1.2-1.3c0-0.3-0.1-0.5-0.2-0.8
			l0.9-0.4c0.2,0.3,0.3,0.7,0.3,1.1c0,1.1-0.7,1.7-1.4,1.9L405.8,215.7z"/>
		<path d="M410.8,215.7h1.2l1.3,3.9c0.2,0.7,0.4,1.4,0.6,2h0.1c0.2-0.7,0.4-1.3,0.6-2l1.3-3.9h1.1l-2.4,6.8h-1.3L410.8,215.7z"/>
		<path d="M417.9,220.7c0-1.5,1.3-2.2,4.2-2.5c0-0.9-0.3-1.7-1.4-1.7c-0.8,0-1.5,0.4-2,0.7l-0.5-0.8c0.6-0.4,1.6-0.9,2.7-0.9
			c1.7,0,2.4,1.1,2.4,2.8v4.2h-1l-0.1-0.8h0c-0.6,0.5-1.4,1-2.3,1C418.8,222.6,417.9,221.9,417.9,220.7z M419,214l1.4-1.3h0.9
			l1.4,1.3l-0.4,0.5l-1.4-1h-0.1l-1.4,1L419,214z M422.1,220.8v-1.9c-2.3,0.3-3.1,0.8-3.1,1.7c0,0.8,0.5,1.1,1.2,1.1
			C420.9,221.7,421.4,221.4,422.1,220.8z M423.5,211.5l0.7,0.5l-1.4,1.6l-0.5-0.4L423.5,211.5z"/>
		<path d="M425.4,215.7h1l0.1,1h0c0.6-0.6,1.3-1.1,2.3-1.1c1.4,0,2.1,0.9,2.1,2.7v4.3h-1.2v-4.2c0-1.3-0.4-1.8-1.3-1.8
			c-0.7,0-1.2,0.4-1.9,1v4.9h-1.2V215.7z"/>
		<path d="M434.9,215.7h1.2l1.3,3.9c0.2,0.7,0.4,1.4,0.6,2h0.1c0.2-0.7,0.4-1.3,0.6-2l1.3-3.9h1.1l-2.4,6.8h-1.3L434.9,215.7z"/>
		<path d="M441.9,220.7c0-1.5,1.3-2.2,4.2-2.5c0-0.9-0.3-1.7-1.4-1.7c-0.8,0-1.5,0.4-2,0.7l-0.5-0.8c0.6-0.4,1.6-0.9,2.7-0.9
			c1.7,0,2.4,1.1,2.4,2.8v4.2h-1l-0.1-0.8h0c-0.6,0.5-1.4,1-2.3,1C442.8,222.6,441.9,221.9,441.9,220.7z M442.9,212.3l0.8-0.8l2,2.3
			l-0.6,0.6L442.9,212.3z M446.1,220.8v-1.9c-2.3,0.3-3.1,0.8-3.1,1.7c0,0.8,0.5,1.1,1.2,1.1C444.9,221.7,445.5,221.4,446.1,220.8z"
			/>
		<path d="M139,235.9c0-2.3,1.5-3.6,3.3-3.6c0.9,0,1.5,0.4,2,0.8l-0.6,0.8c-0.4-0.4-0.8-0.6-1.4-0.6c-1.2,0-2.1,1.1-2.1,2.6
			c0,1.6,0.9,2.6,2.1,2.6c0.6,0,1.2-0.3,1.6-0.7l0.5,0.8c-0.6,0.5-1.4,0.9-2.2,0.9C140.4,239.4,139,238.1,139,235.9z"/>
		<path d="M145.9,229.3h1.2v2.7l0,1.4c0.6-0.6,1.3-1.1,2.3-1.1c1.4,0,2.1,0.9,2.1,2.7v4.3h-1.2v-4.2c0-1.3-0.4-1.8-1.3-1.8
			c-0.7,0-1.2,0.4-1.9,1v4.9h-1.2V229.3z"/>
		<path d="M153,235.9c0-2.3,1.5-3.6,3.2-3.6c1.7,0,3.2,1.3,3.2,3.6c0,2.3-1.5,3.6-3.2,3.6C154.5,239.4,153,238.1,153,235.9z
			 M158.1,235.9c0-1.6-0.8-2.6-2-2.6c-1.2,0-2,1.1-2,2.6c0,1.6,0.8,2.6,2,2.6C157.3,238.5,158.1,237.4,158.1,235.9z"/>
		<path d="M163.4,235.9c0-2.3,1.5-3.6,3.3-3.6c0.9,0,1.5,0.4,2,0.8l-0.6,0.8c-0.4-0.4-0.8-0.6-1.4-0.6c-1.2,0-2.1,1.1-2.1,2.6
			c0,1.6,0.9,2.6,2.1,2.6c0.6,0,1.2-0.3,1.6-0.7l0.5,0.8c-0.6,0.5-1.4,0.9-2.2,0.9C164.7,239.4,163.4,238.1,163.4,235.9z"/>
		<path d="M170.2,229.3h1.2v2.7l0,1.4c0.6-0.6,1.3-1.1,2.3-1.1c1.4,0,2.1,0.9,2.1,2.7v4.3h-1.2v-4.2c0-1.3-0.4-1.8-1.3-1.8
			c-0.7,0-1.2,0.4-1.9,1v4.9h-1.2V229.3z"/>
		<path d="M177.9,230.7c0.5-0.1,0.8-0.3,0.8-0.7c0-0.4-0.4-0.6-1.2-0.6l0.1-0.8c1.3,0,2,0.5,2,1.3c0,0.8-0.8,1.2-1.6,1.3
			L177.9,230.7z M177.9,232.5h1.2v6.8h-1.2V232.5z"/>
		<path d="M183.6,236.1c0-2,1.4-3.3,2.9-3.3c0.8,0,1.3,0.3,1.9,0.8l0-1.2v-3.2h1.2v10h-1l-0.1-0.8h0c-0.5,0.5-1.2,0.9-2.1,0.9
			C184.7,239.4,183.6,238.2,183.6,236.1z M188.4,237.5v-3c-0.6-0.5-1.1-0.7-1.7-0.7c-1.1,0-2,1-2,2.3c0,1.4,0.7,2.3,1.9,2.3
			C187.3,238.5,187.9,238.2,188.4,237.5z M186.2,230.6h4.4v0.6l-1.1,0.1h-3.4V230.6z"/>
		<path d="M191.7,230.3c0-0.5,0.3-0.7,0.8-0.7c0.4,0,0.8,0.3,0.8,0.7c0,0.4-0.3,0.7-0.8,0.7C192,231.1,191.7,230.7,191.7,230.3z
			 M191.7,241.4c0-0.4,0.3-0.7,0.8-0.7c0.4,0,0.8,0.3,0.8,0.7c0,0.5-0.3,0.8-0.8,0.8C192,242.2,191.7,241.8,191.7,241.4z
			 M191.9,232.5h1.2v6.8h-1.2V232.5z"/>
		<path d="M195.3,232.5h1l0.1,1h0c0.6-0.6,1.3-1.1,2.3-1.1c1.4,0,2.1,0.9,2.1,2.7v4.3h-1.2v-4.2c0-1.3-0.4-1.8-1.3-1.8
			c-0.7,0-1.2,0.4-1.9,1v4.9h-1.2V232.5z"/>
		<path d="M203,229.3h1.2v2.7l0,1.4c0.6-0.6,1.3-1.1,2.3-1.1c1.4,0,2.1,0.9,2.1,2.7v4.3h-1.2v-4.2c0-1.3-0.4-1.8-1.3-1.8
			c-0.7,0-1.2,0.4-1.9,1v4.9H203V229.3z"/>
		<path d="M215.1,234.5l-2.5-4.4h1.3l1.3,2.4c0.2,0.4,0.4,0.8,0.7,1.3h0.1c0.2-0.5,0.4-0.9,0.6-1.3l1.2-2.4h1.2l-2.5,4.5l2.7,4.7
			h-1.3l-1.3-2.5c-0.2-0.5-0.5-0.9-0.8-1.5h-0.1c-0.3,0.6-0.5,1-0.7,1.5l-1.3,2.5h-1.2L215.1,234.5z"/>
		<path d="M220.1,235.9c0-2.2,1.5-3.6,3.1-3.6c1.7,0,2.7,1.2,2.7,3.2c0,0.2,0,0.5-0.1,0.7h-4.6c0.1,1.4,1,2.4,2.3,2.4
			c0.7,0,1.2-0.2,1.7-0.5l0.4,0.8c-0.6,0.4-1.3,0.7-2.2,0.7C221.5,239.4,220.1,238.1,220.1,235.9z M224.8,235.3
			c0-1.4-0.6-2.1-1.7-2.1c-1,0-1.8,0.8-2,2.1H224.8z M222.3,230.7l2-2.3l0.8,0.8l-2.2,2.1L222.3,230.7z"/>
		<path d="M227.7,237.2v-3.8h-1v-0.9l1.1-0.1l0.1-1.9h1v1.9h1.8v0.9h-1.8v3.8c0,0.8,0.3,1.3,1.1,1.3c0.2,0,0.6-0.1,0.8-0.2l0.2,0.9
			c-0.4,0.1-0.8,0.3-1.3,0.3C228.2,239.4,227.7,238.5,227.7,237.2z"/>
		<path d="M235.1,232.5h1l0.1,1h0c0.6-0.6,1.3-1.1,2.3-1.1c1.4,0,2.1,0.9,2.1,2.7v4.3h-1.2v-4.2c0-1.3-0.4-1.8-1.3-1.8
			c-0.7,0-1.2,0.4-1.9,1v4.9h-1.2V232.5z"/>
		<path d="M242.2,240.6c0-0.6,0.4-1.1,1-1.5V239c-0.3-0.2-0.6-0.6-0.6-1.1c0-0.6,0.4-1,0.7-1.3v-0.1c-0.5-0.4-0.9-1-0.9-1.8
			c0-1.5,1.2-2.4,2.6-2.4c0.4,0,0.7,0.1,1,0.2h2.4v0.9h-1.4c0.3,0.3,0.6,0.8,0.6,1.4c0,1.5-1.1,2.4-2.5,2.4c-0.3,0-0.7-0.1-1-0.2
			c-0.2,0.2-0.4,0.4-0.4,0.8c0,0.4,0.3,0.7,1.2,0.7h1.3c1.6,0,2.4,0.5,2.4,1.6c0,1.3-1.3,2.4-3.4,2.4
			C243.3,242.4,242.2,241.7,242.2,240.6z M247.3,240.2c0-0.6-0.5-0.8-1.4-0.8h-1.2c-0.3,0-0.6,0-0.9-0.1c-0.5,0.3-0.7,0.8-0.7,1.1
			c0,0.7,0.7,1.2,2,1.2C246.5,241.6,247.3,240.9,247.3,240.2z M246.4,234.7c0-1-0.6-1.6-1.4-1.6s-1.4,0.6-1.4,1.6
			c0,1,0.7,1.6,1.4,1.6C245.8,236.3,246.4,235.7,246.4,234.7z"/>
		<path d="M249.8,229.3h1.2v2.7l0,1.4c0.6-0.6,1.3-1.1,2.3-1.1c1.4,0,2.1,0.9,2.1,2.7v4.3h-1.2v-4.2c0-1.3-0.4-1.8-1.3-1.8
			c-0.7,0-1.2,0.4-1.9,1v4.9h-1.2V229.3z"/>
		<path d="M257.2,230.3c0-0.5,0.3-0.7,0.8-0.7c0.4,0,0.8,0.3,0.8,0.7c0,0.4-0.3,0.7-0.8,0.7C257.5,231.1,257.2,230.7,257.2,230.3z
			 M257.4,232.5h1.2v6.8h-1.2V232.5z"/>
		<path d="M260.3,235.9c0-2.2,1.5-3.6,3.1-3.6c1.7,0,2.7,1.2,2.7,3.2c0,0.2,0,0.5-0.1,0.7h-4.6c0.1,1.4,1,2.4,2.3,2.4
			c0.7,0,1.2-0.2,1.7-0.5l0.4,0.8c-0.6,0.4-1.3,0.7-2.2,0.7C261.8,239.4,260.3,238.1,260.3,235.9z M262.8,228.9h1.2l1.6,2l-0.5,0.5
			l-1.7-1.6h-0.1l-1.7,1.6l-0.5-0.5L262.8,228.9z M265.1,235.3c0-1.4-0.6-2.1-1.7-2.1c-1,0-1.8,0.8-2,2.1H265.1z M262.6,241.4
			c0-0.4,0.3-0.7,0.8-0.7c0.4,0,0.8,0.3,0.8,0.7c0,0.5-0.3,0.8-0.8,0.8C262.9,242.2,262.6,241.8,262.6,241.4z"/>
		<path d="M267.8,232.5h1l0.1,1h0c0.6-0.6,1.3-1.2,2.1-1.2c1,0,1.6,0.5,1.9,1.3c0.7-0.8,1.4-1.3,2.2-1.3c1.4,0,2.1,0.9,2.1,2.7v4.3
			H276v-4.2c0-1.3-0.4-1.8-1.3-1.8c-0.5,0-1.1,0.3-1.7,1v4.9h-1.2v-4.2c0-1.3-0.4-1.8-1.3-1.8c-0.5,0-1.1,0.3-1.7,1v4.9h-1.2V232.5z
			"/>
		<path d="M281.7,235.9c0-2.3,1.5-3.6,3.3-3.6c0.9,0,1.5,0.4,2,0.8l-0.6,0.8c-0.4-0.4-0.8-0.6-1.4-0.6c-1.2,0-2.1,1.1-2.1,2.6
			c0,1.6,0.9,2.6,2.1,2.6c0.6,0,1.2-0.3,1.6-0.7l0.5,0.8c-0.6,0.5-1.4,0.9-2.2,0.9C283,239.4,281.7,238.1,281.7,235.9z"/>
		<path d="M288.1,237.5c0-1.5,1.3-2.2,4.2-2.5c0-0.9-0.3-1.7-1.4-1.7c-0.8,0-1.5,0.4-2,0.7l-0.5-0.8c0.6-0.4,1.6-0.9,2.7-0.9
			c1.7,0,2.4,1.1,2.4,2.8v4.2h-1l-0.1-0.8h0c-0.6,0.5-1.4,1-2.3,1C289,239.4,288.1,238.7,288.1,237.5z M290.5,228.9h1.2l1.6,2
			l-0.5,0.5l-1.7-1.6h-0.1l-1.7,1.6l-0.5-0.5L290.5,228.9z M292.3,237.6v-1.9c-2.3,0.3-3.1,0.8-3.1,1.7c0,0.8,0.5,1.1,1.2,1.1
			C291.1,238.5,291.7,238.2,292.3,237.6z M290.1,241.4c0-0.4,0.3-0.7,0.8-0.7s0.8,0.3,0.8,0.7c0,0.5-0.3,0.8-0.8,0.8
			S290.1,241.8,290.1,241.4z"/>
		<path d="M295.6,232.5h1l0.1,1h0c0.6-0.6,1.3-1.1,2.3-1.1c1.4,0,2.1,0.9,2.1,2.7v4.3h-1.2v-4.2c0-1.3-0.4-1.8-1.3-1.8
			c-0.7,0-1.2,0.4-1.9,1v4.9h-1.2V232.5z"/>
		<path d="M306.1,237.9v-8.6h1.2v8.7c0,0.4,0.2,0.5,0.3,0.5c0.1,0,0.1,0,0.3,0l0.2,0.9c-0.2,0.1-0.4,0.1-0.7,0.1
			C306.4,239.4,306.1,238.9,306.1,237.9z"/>
		<path d="M309.2,237.5c0-1.5,1.3-2.2,4.2-2.5c0-0.9-0.3-1.7-1.4-1.7c-0.8,0-1.5,0.4-2,0.7l-0.5-0.8c0.6-0.4,1.6-0.9,2.7-0.9
			c1.7,0,2.4,1.1,2.4,2.8v4.2h-1l-0.1-0.8h0c-0.6,0.5-1.4,1-2.3,1C310.1,239.4,309.2,238.7,309.2,237.5z M311.6,228.9h1.2l1.6,2
			l-0.5,0.5l-1.7-1.6h-0.1l-1.7,1.6l-0.5-0.5L311.6,228.9z M313.4,237.6v-1.9c-2.3,0.3-3.1,0.8-3.1,1.7c0,0.8,0.5,1.1,1.2,1.1
			C312.2,238.5,312.7,238.2,313.4,237.6z"/>
		<path d="M316.7,232.5h1l0.1,1h0c0.6-0.6,1.3-1.2,2.1-1.2c1,0,1.6,0.5,1.9,1.3c0.7-0.8,1.4-1.3,2.2-1.3c1.4,0,2.1,0.9,2.1,2.7v4.3
			h-1.2v-4.2c0-1.3-0.4-1.8-1.3-1.8c-0.5,0-1.1,0.3-1.7,1v4.9h-1.2v-4.2c0-1.3-0.4-1.8-1.3-1.8c-0.5,0-1.1,0.3-1.7,1v4.9h-1.2V232.5
			z"/>
		<path d="M330.3,238.5l0.6-0.8c0.6,0.5,1.2,0.8,2,0.8c0.9,0,1.3-0.5,1.3-1.1c0-0.7-0.8-1-1.6-1.3c-1-0.3-2-0.8-2-2
			c0-1.1,0.9-1.9,2.3-1.9c0.8,0,1.6,0.3,2.1,0.8l-0.6,0.7c-0.5-0.3-1-0.6-1.6-0.6c-0.9,0-1.3,0.5-1.3,1c0,0.6,0.7,0.9,1.5,1.2
			c1,0.4,2.1,0.8,2.1,2.1c0,1.1-0.9,2-2.5,2C331.9,239.4,331,239,330.3,238.5z"/>
		<path d="M336.5,237.5c0-1.5,1.3-2.2,4.2-2.5c0-0.9-0.3-1.7-1.4-1.7c-0.8,0-1.5,0.4-2,0.7l-0.5-0.8c0.6-0.4,1.6-0.9,2.7-0.9
			c1.7,0,2.4,1.1,2.4,2.8v4.2h-1l-0.1-0.8h0c-0.6,0.5-1.4,1-2.3,1C337.4,239.4,336.5,238.7,336.5,237.5z M337.5,229.1l0.8-0.8l2,2.3
			l-0.6,0.6L337.5,229.1z M340.7,237.6v-1.9c-2.3,0.3-3.1,0.8-3.1,1.7c0,0.8,0.5,1.1,1.2,1.1C339.5,238.5,340.1,238.2,340.7,237.6z"
			/>
		<path d="M344,232.5h1l0.1,1h0c0.6-0.6,1.3-1.1,2.3-1.1c1.4,0,2.1,0.9,2.1,2.7v4.3h-1.2v-4.2c0-1.3-0.4-1.8-1.3-1.8
			c-0.7,0-1.2,0.4-1.9,1v4.9H344V232.5z"/>
		<path d="M351.2,240.6c0-0.6,0.4-1.1,1-1.5V239c-0.3-0.2-0.6-0.6-0.6-1.1c0-0.6,0.4-1,0.7-1.3v-0.1c-0.5-0.4-0.9-1-0.9-1.8
			c0-1.5,1.2-2.4,2.6-2.4c0.4,0,0.7,0.1,1,0.2h2.4v0.9h-1.4c0.3,0.3,0.6,0.8,0.6,1.4c0,1.5-1.1,2.4-2.5,2.4c-0.3,0-0.7-0.1-1-0.2
			c-0.2,0.2-0.4,0.4-0.4,0.8c0,0.4,0.3,0.7,1.2,0.7h1.3c1.6,0,2.4,0.5,2.4,1.6c0,1.3-1.3,2.4-3.4,2.4
			C352.3,242.4,351.2,241.7,351.2,240.6z M356.3,240.2c0-0.6-0.5-0.8-1.4-0.8h-1.2c-0.3,0-0.6,0-0.9-0.1c-0.5,0.3-0.7,0.8-0.7,1.1
			c0,0.7,0.7,1.2,2,1.2C355.4,241.6,356.3,240.9,356.3,240.2z M355.4,234.7c0-1-0.6-1.6-1.4-1.6s-1.4,0.6-1.4,1.6
			c0,1,0.7,1.6,1.4,1.6C354.8,236.3,355.4,235.7,355.4,234.7z"/>
		<path d="M358.5,238.6c0-0.5,0.4-0.9,0.8-0.9c0.5,0,0.8,0.4,0.8,0.9c0,0.5-0.4,0.9-0.8,0.9C358.9,239.4,358.5,239.1,358.5,238.6z"
			/>
	</g>
</g>
<g>
	<g>
		<path d="M102.8,301.2h2.9c1.9,0,3.3,0.6,3.3,2.3c0,0.9-0.5,1.7-1.3,2v0.1c1,0.2,1.8,0.9,1.8,2.2c0,1.8-1.5,2.7-3.5,2.7h-3.2V301.2
			z M105.6,305c1.3,0,1.8-0.5,1.8-1.3c0-0.9-0.6-1.2-1.8-1.2h-1.2v2.5H105.6z M105.8,309.1c1.3,0,2.1-0.5,2.1-1.5
			c0-1-0.7-1.4-2.1-1.4h-1.4v2.9H105.8z"/>
		<path d="M111,307.8v-4.3h1.6v4.1c0,1.1,0.3,1.6,1.1,1.6c0.6,0,1-0.3,1.5-1v-4.7h1.6v6.9h-1.3l-0.1-1h0c-0.6,0.7-1.3,1.2-2.2,1.2
			C111.6,310.5,111,309.5,111,307.8z M115.7,303.5c0.6-0.1,1.2-0.3,1.2-1.3c0-0.3-0.1-0.6-0.2-0.8l1.2-0.5c0.2,0.3,0.4,0.8,0.4,1.2
			c0,1.1-0.7,1.7-1.4,2L115.7,303.5z"/>
		<path d="M118.4,306.9c0-2.3,1.6-3.6,3.3-3.6s3.3,1.3,3.3,3.6c0,2.3-1.6,3.6-3.3,3.6S118.4,309.2,118.4,306.9z M123.3,306.9
			c0-1.4-0.6-2.3-1.6-2.3c-1,0-1.6,0.9-1.6,2.3s0.6,2.3,1.6,2.3C122.7,309.2,123.3,308.3,123.3,306.9z M120.8,301.5l2.1-2.4l1.1,1.1
			l-2.4,2.2L120.8,301.5z M123,303.6c0.7-0.1,1.1-0.5,1.1-1.3c0-0.3-0.1-0.6-0.2-0.8l1.2-0.5c0.2,0.3,0.4,0.8,0.4,1.2
			c0,1.1-0.8,1.7-1.7,2L123,303.6z"/>
		<path d="M126.1,306.9c0-2.3,1.6-3.6,3.5-3.6c0.9,0,1.5,0.3,2,0.8l-0.8,1c-0.4-0.3-0.7-0.5-1.1-0.5c-1.1,0-1.9,0.9-1.9,2.3
			s0.8,2.3,1.8,2.3c0.5,0,1-0.3,1.4-0.6l0.7,1.1c-0.6,0.6-1.5,0.8-2.2,0.8C127.5,310.5,126.1,309.2,126.1,306.9z"/>
		<path d="M135.3,309.4c2.5-2.4,4-4,4-5.3c0-0.9-0.5-1.5-1.5-1.5c-0.7,0-1.3,0.5-1.7,1l-0.9-0.9c0.8-0.9,1.6-1.4,2.8-1.4
			c1.7,0,2.8,1.1,2.8,2.7c0,1.6-1.5,3.2-3.2,5.1c0.5,0,1.1-0.1,1.5-0.1h2.2v1.4h-6V309.4z"/>
		<path d="M142.8,304.6c0-0.6,0.5-1.1,1-1.1c0.6,0,1,0.5,1,1.1c0,0.6-0.5,1.1-1,1.1C143.3,305.7,142.8,305.2,142.8,304.6z
			 M142.8,309.4c0-0.6,0.5-1.1,1-1.1c0.6,0,1,0.5,1,1.1c0,0.6-0.5,1.1-1,1.1C143.3,310.5,142.8,310,142.8,309.4z"/>
		<path d="M101.7,311.7V311h44.1v0.7H101.7z"/>
		<path d="M138.4,322.5c0-2.9,1.6-4.7,3.9-4.7s3.9,1.8,3.9,4.7c0,2.9-1.6,4.8-3.9,4.8S138.4,325.4,138.4,322.5z M145,322.5
			c0-2.3-1.1-3.7-2.7-3.7s-2.7,1.4-2.7,3.7c0,2.3,1.1,3.8,2.7,3.8S145,324.8,145,322.5z M141.7,327.1l1.2-0.1c0.4,1,1.3,1.5,2.4,1.5
			c0.4,0,0.7-0.1,1-0.1l0.2,0.9c-0.3,0.1-0.8,0.2-1.3,0.2C143.4,329.4,142.2,328.4,141.7,327.1z"/>
		<path d="M148,324.6v-4.3h1.2v4.2c0,1.3,0.4,1.8,1.3,1.8c0.7,0,1.2-0.3,1.8-1.1v-4.8h1.2v6.8h-1l-0.1-1.1h0
			c-0.6,0.7-1.3,1.2-2.2,1.2C148.7,327.3,148,326.4,148,324.6z"/>
		<path d="M155,329.9l0.2-0.9c0.1,0,0.3,0.1,0.5,0.1c0.8,0,1.3-0.6,1.5-1.5l0.2-0.5l-2.7-6.8h1.2l1.4,3.8c0.2,0.6,0.4,1.3,0.7,1.9
			h0.1c0.2-0.6,0.4-1.3,0.6-1.9l1.2-3.8h1.1l-2.6,7.4c-0.5,1.4-1.2,2.4-2.5,2.4C155.5,330.1,155.3,330,155,329.9z M157.2,318.5
			l2-2.3l0.8,0.8l-2.2,2.1L157.2,318.5z"/>
		<path d="M165.1,317.2h1.1v6.8h0l2.9-3.6h1.3l-2.3,2.7l2.6,4.1h-1.3l-2-3.3l-1.3,1.5v1.8h-1.1V317.2z"/>
		<path d="M172,317.2h1.2v2.7l0,1.4c0.6-0.6,1.3-1.1,2.3-1.1c1.4,0,2.1,0.9,2.1,2.7v4.3h-1.2V323c0-1.3-0.4-1.8-1.3-1.8
			c-0.7,0-1.2,0.4-1.9,1v4.9H172V317.2z"/>
		<path d="M179.2,325.4c0-1.5,1.3-2.2,4.2-2.5c0-0.9-0.3-1.7-1.4-1.7c-0.8,0-1.5,0.4-2,0.7l-0.5-0.8c0.6-0.4,1.6-0.9,2.7-0.9
			c1.7,0,2.4,1.1,2.4,2.8v4.2h-1l-0.1-0.8h0c-0.6,0.5-1.4,1-2.3,1C180,327.3,179.2,326.6,179.2,325.4z M183.4,325.5v-1.9
			c-2.3,0.3-3.1,0.8-3.1,1.7c0,0.8,0.5,1.1,1.2,1.1C182.2,326.4,182.7,326.1,183.4,325.5z M181.4,318.5l2-2.3l0.8,0.8l-2.2,2.1
			L181.4,318.5z"/>
		<path d="M186.2,323.7c0-2.3,1.5-3.6,3.3-3.6c0.9,0,1.5,0.4,2,0.8l-0.6,0.8c-0.4-0.4-0.8-0.6-1.4-0.6c-1.2,0-2.1,1.1-2.1,2.6
			c0,1.6,0.9,2.6,2.1,2.6c0.6,0,1.2-0.3,1.6-0.7l0.5,0.8c-0.6,0.5-1.4,0.9-2.2,0.9C187.6,327.3,186.2,326,186.2,323.7z"/>
		<path d="M193.1,317.2h1.2v2.7l0,1.4c0.6-0.6,1.3-1.1,2.3-1.1c1.4,0,2.1,0.9,2.1,2.7v4.3h-1.2V323c0-1.3-0.4-1.8-1.3-1.8
			c-0.7,0-1.2,0.4-1.9,1v4.9h-1.2V317.2z"/>
		<path d="M203,324c0-2,1.4-3.3,2.9-3.3c0.8,0,1.3,0.3,1.9,0.8l0-1.2v-3.2h1.2v10h-1l-0.1-0.8h0c-0.5,0.5-1.2,0.9-2.1,0.9
			C204.1,327.3,203,326.1,203,324z M207.8,325.4v-3c-0.6-0.5-1.1-0.7-1.7-0.7c-1.1,0-2,1-2,2.3c0,1.4,0.7,2.3,1.9,2.3
			C206.7,326.3,207.2,326,207.8,325.4z M205.5,318.5h4.4v0.6l-1.1,0.1h-3.4V318.5z"/>
		<path d="M210.7,323.7c0-2.3,1.5-3.6,3.2-3.6s3.2,1.3,3.2,3.6c0,2.3-1.5,3.6-3.2,3.6S210.7,326,210.7,323.7z M215.9,323.7
			c0-1.6-0.8-2.6-2-2.6c-1.2,0-2,1.1-2,2.6c0,1.6,0.8,2.6,2,2.6C215.1,326.3,215.9,325.3,215.9,323.7z M213.1,318.5l2-2.3l0.8,0.8
			l-2.2,2.1L213.1,318.5z"/>
		<path d="M218.8,320.3h1l0.1,1h0c0.6-0.6,1.3-1.1,2.3-1.1c1.4,0,2.1,0.9,2.1,2.7v4.3h-1.2V323c0-1.3-0.4-1.8-1.3-1.8
			c-0.7,0-1.2,0.4-1.9,1v4.9h-1.2V320.3z"/>
		<path d="M226,328.4c0-0.6,0.4-1.1,1-1.5v-0.1c-0.3-0.2-0.6-0.6-0.6-1.1c0-0.6,0.4-1,0.7-1.3v-0.1c-0.5-0.4-0.9-1-0.9-1.8
			c0-1.5,1.2-2.4,2.6-2.4c0.4,0,0.7,0.1,1,0.2h2.4v0.9h-1.4c0.3,0.3,0.6,0.8,0.6,1.4c0,1.5-1.1,2.4-2.5,2.4c-0.3,0-0.7-0.1-1-0.2
			c-0.2,0.2-0.4,0.4-0.4,0.8c0,0.4,0.3,0.7,1.2,0.7h1.3c1.6,0,2.4,0.5,2.4,1.6c0,1.3-1.3,2.4-3.4,2.4
			C227.1,330.3,226,329.6,226,328.4z M231.1,328.1c0-0.6-0.5-0.8-1.4-0.8h-1.2c-0.3,0-0.6,0-0.9-0.1c-0.5,0.3-0.7,0.8-0.7,1.1
			c0,0.7,0.7,1.2,2,1.2C230.2,329.5,231.1,328.8,231.1,328.1z M230.2,322.6c0-1-0.6-1.6-1.4-1.6s-1.4,0.6-1.4,1.6
			c0,1,0.7,1.6,1.4,1.6S230.2,323.6,230.2,322.6z"/>
		<path d="M236.5,325v-3.8h-1v-0.9l1.1-0.1l0.1-1.9h1v1.9h1.8v0.9h-1.8v3.8c0,0.8,0.3,1.3,1.1,1.3c0.2,0,0.6-0.1,0.8-0.2l0.2,0.9
			c-0.4,0.1-0.8,0.3-1.3,0.3C237,327.3,236.5,326.4,236.5,325z"/>
		<path d="M240.9,318.2c0-0.5,0.3-0.7,0.8-0.7c0.4,0,0.8,0.3,0.8,0.7c0,0.4-0.3,0.7-0.8,0.7C241.2,318.9,240.9,318.6,240.9,318.2z
			 M241.1,320.3h1.2v6.8h-1.2V320.3z"/>
		<path d="M245.2,318.2l-1.6-1.6l0.7-0.5l1.4,1.6L245.2,318.2z M244,323.7c0-2.2,1.5-3.6,3.1-3.6c1.7,0,2.7,1.2,2.7,3.2
			c0,0.2,0,0.5-0.1,0.7h-4.6c0.1,1.4,1,2.4,2.3,2.4c0.7,0,1.2-0.2,1.7-0.5l0.4,0.8c-0.6,0.4-1.3,0.7-2.2,0.7
			C245.5,327.3,244,326,244,323.7z M248.8,323.2c0-1.4-0.6-2.1-1.7-2.1c-1,0-1.8,0.8-2,2.1H248.8z M245.2,318.7l1.4-1.3h0.9l1.4,1.3
			l-0.4,0.5l-1.4-1H247l-1.4,1L245.2,318.7z"/>
		<path d="M251.5,320.3h1l0.1,1h0c0.6-0.6,1.3-1.1,2.3-1.1c1.4,0,2.1,0.9,2.1,2.7v4.3h-1.2V323c0-1.3-0.4-1.8-1.3-1.8
			c-0.7,0-1.2,0.4-1.9,1v4.9h-1.2V320.3z"/>
		<path d="M261.4,323.7c0-2.3,1.5-3.6,3.2-3.6s3.2,1.3,3.2,3.6c0,2.3-1.5,3.6-3.2,3.6S261.4,326,261.4,323.7z M266.5,323.7
			c0-1.6-0.8-2.6-2-2.6s-2,1.1-2,2.6c0,1.6,0.8,2.6,2,2.6S266.5,325.3,266.5,323.7z M264,318.6c0.4-0.1,0.8-0.3,0.8-0.7
			c0-0.4-0.4-0.6-1.2-0.6l0.1-0.8c1.3,0,2,0.5,2,1.3c0,0.8-0.8,1.2-1.6,1.3L264,318.6z M265.8,320.5c0.8-0.1,1.3-0.6,1.3-1.3
			c0-0.3-0.1-0.5-0.2-0.8l0.9-0.4c0.2,0.3,0.3,0.7,0.3,1.1c0,1.1-0.8,1.7-1.6,1.9L265.8,320.5z"/>
		<path d="M271.9,322.5c0-2.9,1.6-4.7,3.9-4.7c2.3,0,3.9,1.8,3.9,4.7c0,2.9-1.6,4.8-3.9,4.8C273.5,327.3,271.9,325.4,271.9,322.5z
			 M278.5,322.5c0-2.3-1.1-3.7-2.7-3.7c-1.6,0-2.7,1.4-2.7,3.7c0,2.3,1.1,3.8,2.7,3.8C277.4,326.3,278.5,324.8,278.5,322.5z
			 M275.2,327.1l1.2-0.1c0.4,1,1.3,1.5,2.4,1.5c0.4,0,0.7-0.1,1-0.1l0.2,0.9c-0.3,0.1-0.8,0.2-1.3,0.2
			C276.9,329.4,275.7,328.4,275.2,327.1z"/>
		<path d="M281.5,324.6v-4.3h1.2v4.2c0,1.3,0.4,1.8,1.3,1.8c0.7,0,1.2-0.3,1.8-1.1v-4.8h1.2v6.8h-1l-0.1-1.1h0
			c-0.6,0.7-1.3,1.2-2.2,1.2C282.2,327.3,281.5,326.4,281.5,324.6z"/>
		<path d="M289.9,318.2l-1.6-1.6l0.7-0.5l1.4,1.6L289.9,318.2z M288.8,325.4c0-1.5,1.3-2.2,4.2-2.5c0-0.9-0.3-1.7-1.4-1.7
			c-0.8,0-1.5,0.4-2,0.7l-0.5-0.8c0.6-0.4,1.6-0.9,2.7-0.9c1.7,0,2.4,1.1,2.4,2.8v4.2h-1l-0.1-0.8h0c-0.6,0.5-1.4,1-2.3,1
			C289.7,327.3,288.8,326.6,288.8,325.4z M289.9,318.7l1.4-1.3h0.9l1.4,1.3l-0.4,0.5l-1.4-1h-0.1l-1.4,1L289.9,318.7z M293,325.5
			v-1.9c-2.3,0.3-3.1,0.8-3.1,1.7c0,0.8,0.5,1.1,1.2,1.1C291.8,326.4,292.3,326.1,293,325.5z"/>
		<path d="M295.6,329.9l0.2-0.9c0.1,0,0.3,0.1,0.5,0.1c0.8,0,1.3-0.6,1.5-1.5l0.2-0.5l-2.7-6.8h1.2l1.4,3.8c0.2,0.6,0.4,1.3,0.7,1.9
			h0.1c0.2-0.6,0.4-1.3,0.6-1.9l1.2-3.8h1.1l-2.6,7.4c-0.5,1.4-1.2,2.4-2.5,2.4C296.1,330.1,295.8,330,295.6,329.9z"/>
		<path d="M305.8,325v-3.8h-1v-0.9l1.1-0.1l0.1-1.9h1v1.9h1.8v0.9H307v3.8c0,0.8,0.3,1.3,1.1,1.3c0.2,0,0.6-0.1,0.8-0.2l0.2,0.9
			c-0.4,0.1-0.8,0.3-1.3,0.3C306.3,327.3,305.8,326.4,305.8,325z"/>
		<path d="M310.4,317.2h1.2v2.7l0,1.4c0.6-0.6,1.3-1.1,2.3-1.1c1.4,0,2.1,0.9,2.1,2.7v4.3h-1.2V323c0-1.3-0.4-1.8-1.3-1.8
			c-0.7,0-1.2,0.4-1.9,1v4.9h-1.2V317.2z"/>
		<path d="M317.9,324.6v-4.3h1.2v4.2c0,1.3,0.4,1.8,1.3,1.8c0.7,0,1.2-0.3,1.8-1.1v-4.8h1.2v6.8h-1l-0.1-1.1h0
			c-0.6,0.7-1.3,1.2-2.2,1.2C318.5,327.3,317.9,326.4,317.9,324.6z"/>
		<path d="M328.4,320.3h1l0.1,0.8h0c0.6-0.5,1.4-1,2.2-1c1.8,0,2.7,1.4,2.7,3.5c0,2.3-1.4,3.7-2.9,3.7c-0.6,0-1.3-0.3-1.9-0.8l0,1.2
			v2.3h-1.2V320.3z M333.2,323.6c0-1.5-0.5-2.5-1.8-2.5c-0.6,0-1.2,0.3-1.8,0.9v3.6c0.6,0.5,1.2,0.7,1.7,0.7
			C332.3,326.3,333.2,325.3,333.2,323.6z"/>
		<path d="M336.2,317.2h1.2v2.7l0,1.4c0.6-0.6,1.3-1.1,2.3-1.1c1.4,0,2.1,0.9,2.1,2.7v4.3h-1.2V323c0-1.3-0.4-1.8-1.3-1.8
			c-0.7,0-1.2,0.4-1.9,1v4.9h-1.2V317.2z"/>
		<path d="M343.6,318.5l2-2.3l0.8,0.8l-2.2,2.1L343.6,318.5z M343.8,320.3h1.2v6.8h-1.2V320.3z"/>
		<path d="M349.6,326.4l0.6-0.7c0.4,0.4,0.9,0.7,1.5,0.7c1.3,0,2.4-1,2.4-4c0-2.2-0.7-3.4-2-3.4c-0.9,0-1.6,0.8-1.6,2
			c0,1.2,0.5,1.9,1.7,1.9c0.6,0,1.3-0.3,1.9-1.3l0,0.9c-0.6,0.8-1.4,1.2-2.2,1.2c-1.5,0-2.5-0.9-2.5-2.8c0-1.7,1.2-2.9,2.6-2.9
			c1.8,0,3.1,1.4,3.1,4.3c0,3.6-1.6,5-3.4,5C350.8,327.3,350.1,326.9,349.6,326.4z"/>
		<path d="M356.5,328.8c0.8-0.3,1.3-1,1.3-1.7l-0.1-1l0.6,0.8c-0.2,0.2-0.4,0.2-0.6,0.2c-0.4,0-0.8-0.3-0.8-0.8
			c0-0.5,0.4-0.8,0.9-0.8c0.6,0,1,0.5,1,1.4c0,1.2-0.7,2.2-1.8,2.6L356.5,328.8z"/>
		<path d="M363.2,326.2h2v-6.6h-1.6v-0.7c0.8-0.1,1.4-0.4,1.9-0.7h0.9v8h1.8v1h-5V326.2z"/>
		<path d="M369.7,322.6c0-3,1.1-4.6,2.9-4.6c1.8,0,2.9,1.6,2.9,4.6c0,3-1.1,4.7-2.9,4.7C370.8,327.3,369.7,325.6,369.7,322.6z
			 M374.3,322.6c0-2.6-0.7-3.7-1.7-3.7c-1,0-1.7,1.1-1.7,3.7c0,2.6,0.7,3.7,1.7,3.7C373.6,326.4,374.3,325.3,374.3,322.6z"/>
		<path d="M376.7,328.8c0.8-0.3,1.3-1,1.3-1.7l-0.1-1l0.6,0.8c-0.2,0.2-0.4,0.2-0.6,0.2c-0.4,0-0.8-0.3-0.8-0.8
			c0-0.5,0.4-0.8,0.9-0.8c0.6,0,1,0.5,1,1.4c0,1.2-0.7,2.2-1.8,2.6L376.7,328.8z"/>
		<path d="M383.4,326.2h2v-6.6h-1.6v-0.7c0.8-0.1,1.4-0.4,1.9-0.7h0.9v8h1.8v1h-5V326.2z"/>
		<path d="M390.4,326.2h2v-6.6h-1.6v-0.7c0.8-0.1,1.4-0.4,1.9-0.7h0.9v8h1.8v1h-5V326.2z"/>
		<path d="M397.1,326.4c0-0.5,0.4-0.9,0.8-0.9c0.5,0,0.8,0.4,0.8,0.9c0,0.5-0.4,0.9-0.8,0.9C397.5,327.3,397.1,326.9,397.1,326.4z"
			/>
	</g>
</g>
<rect x="94.3" y="383.7" style="fill:#E7E7E7;" width="412" height="48.3"/>
<g>
	<g>
		<path d="M103.1,390.8h2.9c1.9,0,3.3,0.6,3.3,2.3c0,0.9-0.5,1.7-1.3,2v0.1c1,0.2,1.8,0.9,1.8,2.2c0,1.8-1.5,2.7-3.5,2.7h-3.2V390.8
			z M105.9,394.6c1.3,0,1.8-0.5,1.8-1.3c0-0.9-0.6-1.2-1.8-1.2h-1.2v2.5H105.9z M106.1,398.7c1.3,0,2.1-0.5,2.1-1.5
			c0-1-0.7-1.4-2.1-1.4h-1.4v2.9H106.1z"/>
		<path d="M111.3,397.4v-4.3h1.6v4.1c0,1.1,0.3,1.6,1.1,1.6c0.6,0,1-0.3,1.5-1v-4.7h1.6v6.9h-1.3l-0.1-1h0c-0.6,0.7-1.3,1.2-2.2,1.2
			C111.9,400.2,111.3,399.2,111.3,397.4z M116,393.1c0.6-0.1,1.2-0.3,1.2-1.3c0-0.3-0.1-0.6-0.2-0.8l1.2-0.5
			c0.2,0.3,0.4,0.8,0.4,1.2c0,1.1-0.7,1.7-1.4,2L116,393.1z"/>
		<path d="M118.7,396.6c0-2.3,1.6-3.6,3.3-3.6s3.3,1.3,3.3,3.6c0,2.3-1.6,3.6-3.3,3.6S118.7,398.8,118.7,396.6z M123.6,396.6
			c0-1.4-0.6-2.3-1.6-2.3c-1,0-1.6,0.9-1.6,2.3s0.6,2.3,1.6,2.3C123,398.9,123.6,397.9,123.6,396.6z M121.1,391.2l2.1-2.4l1.1,1.1
			l-2.4,2.2L121.1,391.2z M123.3,393.2c0.7-0.1,1.1-0.5,1.1-1.3c0-0.3-0.1-0.6-0.2-0.8l1.2-0.5c0.2,0.3,0.4,0.8,0.4,1.2
			c0,1.1-0.8,1.7-1.7,2L123.3,393.2z"/>
		<path d="M126.4,396.6c0-2.3,1.6-3.6,3.5-3.6c0.9,0,1.5,0.3,2,0.8l-0.8,1c-0.4-0.3-0.7-0.5-1.1-0.5c-1.1,0-1.9,0.9-1.9,2.3
			s0.8,2.3,1.8,2.3c0.5,0,1-0.3,1.4-0.6l0.7,1.1c-0.6,0.6-1.5,0.8-2.2,0.8C127.8,400.2,126.4,398.8,126.4,396.6z"/>
		<path d="M135.4,398.9l0.8-1c0.5,0.5,1.2,1,2.1,1c1,0,1.6-0.5,1.6-1.3c0-0.9-0.6-1.5-2.6-1.5v-1.2c1.7,0,2.3-0.6,2.3-1.4
			c0-0.7-0.5-1.2-1.3-1.2c-0.7,0-1.2,0.3-1.8,0.8l-0.8-1c0.8-0.7,1.6-1.1,2.7-1.1c1.7,0,2.9,0.9,2.9,2.4c0,1-0.6,1.7-1.6,2v0.1
			c1.1,0.3,1.9,1,1.9,2.2c0,1.6-1.4,2.6-3.1,2.6C137,400.2,136,399.6,135.4,398.9z"/>
		<path d="M143.1,394.3c0-0.6,0.5-1.1,1-1.1c0.6,0,1,0.5,1,1.1c0,0.6-0.5,1.1-1,1.1C143.6,395.4,143.1,394.9,143.1,394.3z
			 M143.1,399.1c0-0.6,0.5-1.1,1-1.1c0.6,0,1,0.5,1,1.1c0,0.6-0.5,1.1-1,1.1C143.6,400.2,143.1,399.7,143.1,399.1z"/>
		<path d="M102,401.4v-0.7h44.1v0.7H102z"/>
		<path d="M138.7,412.2c0-2.9,1.6-4.7,3.9-4.7s3.9,1.8,3.9,4.7c0,2.9-1.6,4.8-3.9,4.8S138.7,415.1,138.7,412.2z M145.3,412.2
			c0-2.3-1.1-3.7-2.7-3.7s-2.7,1.4-2.7,3.7c0,2.3,1.1,3.8,2.7,3.8S145.3,414.5,145.3,412.2z M142,416.8l1.2-0.1
			c0.4,1,1.3,1.5,2.4,1.5c0.4,0,0.7-0.1,1-0.1l0.2,0.9c-0.3,0.1-0.8,0.2-1.3,0.2C143.7,419.1,142.5,418.1,142,416.8z"/>
		<path d="M148.3,414.3V410h1.2v4.2c0,1.3,0.4,1.8,1.3,1.8c0.7,0,1.2-0.3,1.8-1.1V410h1.2v6.8h-1l-0.1-1.1h0
			c-0.6,0.7-1.3,1.2-2.2,1.2C149,417,148.3,416,148.3,414.3z"/>
		<path d="M155.3,419.6l0.2-0.9c0.1,0,0.3,0.1,0.5,0.1c0.8,0,1.3-0.6,1.5-1.5l0.2-0.5l-2.7-6.8h1.2l1.4,3.8c0.2,0.6,0.4,1.3,0.7,1.9
			h0.1c0.2-0.6,0.4-1.3,0.6-1.9l1.2-3.8h1.1l-2.6,7.4c-0.5,1.4-1.2,2.4-2.5,2.4C155.8,419.7,155.6,419.7,155.3,419.6z M157.5,408.2
			l2-2.3l0.8,0.8l-2.2,2.1L157.5,408.2z"/>
		<path d="M165.4,406.8h1.1v6.8h0l2.9-3.6h1.3l-2.3,2.7l2.6,4.1h-1.3l-2-3.3l-1.3,1.5v1.8h-1.1V406.8z"/>
		<path d="M172.3,406.8h1.2v2.7l0,1.4c0.6-0.6,1.3-1.1,2.3-1.1c1.4,0,2.1,0.9,2.1,2.7v4.3h-1.2v-4.2c0-1.3-0.4-1.8-1.3-1.8
			c-0.7,0-1.2,0.4-1.9,1v4.9h-1.2V406.8z"/>
		<path d="M179.5,415c0-1.5,1.3-2.2,4.2-2.5c0-0.9-0.3-1.7-1.4-1.7c-0.8,0-1.5,0.4-2,0.7l-0.5-0.8c0.6-0.4,1.6-0.9,2.7-0.9
			c1.7,0,2.4,1.1,2.4,2.8v4.2h-1l-0.1-0.8h0c-0.6,0.5-1.4,1-2.3,1C180.4,417,179.5,416.3,179.5,415z M183.7,415.1v-1.9
			c-2.3,0.3-3.1,0.8-3.1,1.7c0,0.8,0.5,1.1,1.2,1.1C182.5,416,183,415.7,183.7,415.1z M181.7,408.2l2-2.3l0.8,0.8l-2.2,2.1
			L181.7,408.2z"/>
		<path d="M186.5,413.4c0-2.3,1.5-3.6,3.3-3.6c0.9,0,1.5,0.4,2,0.8l-0.6,0.8c-0.4-0.4-0.8-0.6-1.4-0.6c-1.2,0-2.1,1.1-2.1,2.6
			c0,1.6,0.9,2.6,2.1,2.6c0.6,0,1.2-0.3,1.6-0.7l0.5,0.8c-0.6,0.5-1.4,0.9-2.2,0.9C187.9,417,186.5,415.7,186.5,413.4z"/>
		<path d="M193.4,406.8h1.2v2.7l0,1.4c0.6-0.6,1.3-1.1,2.3-1.1c1.4,0,2.1,0.9,2.1,2.7v4.3h-1.2v-4.2c0-1.3-0.4-1.8-1.3-1.8
			c-0.7,0-1.2,0.4-1.9,1v4.9h-1.2V406.8z"/>
		<path d="M203.3,413.7c0-2,1.4-3.3,2.9-3.3c0.8,0,1.3,0.3,1.9,0.8l0-1.2v-3.2h1.2v10h-1l-0.1-0.8h0c-0.5,0.5-1.2,0.9-2.1,0.9
			C204.4,417,203.3,415.7,203.3,413.7z M208.1,415.1v-3c-0.6-0.5-1.1-0.7-1.7-0.7c-1.1,0-2,1-2,2.3c0,1.4,0.7,2.3,1.9,2.3
			C207,416,207.5,415.7,208.1,415.1z M205.8,408.1h4.4v0.6l-1.1,0.1h-3.4V408.1z"/>
		<path d="M211.3,407.8c0-0.5,0.3-0.7,0.8-0.7c0.4,0,0.8,0.3,0.8,0.7c0,0.4-0.3,0.7-0.8,0.7C211.7,408.6,211.3,408.3,211.3,407.8z
			 M211.5,410h1.2v6.8h-1.2V410z"/>
		<path d="M217.8,415.4v-8.6h1.2v8.7c0,0.4,0.2,0.5,0.3,0.5c0.1,0,0.1,0,0.3,0l0.2,0.9c-0.2,0.1-0.4,0.1-0.7,0.1
			C218.1,417,217.8,416.4,217.8,415.4z"/>
		<path d="M220.9,415c0-1.5,1.3-2.2,4.2-2.5c0-0.9-0.3-1.7-1.4-1.7c-0.8,0-1.5,0.4-2,0.7l-0.5-0.8c0.6-0.4,1.6-0.9,2.7-0.9
			c1.7,0,2.4,1.1,2.4,2.8v4.2h-1l-0.1-0.8h0c-0.6,0.5-1.4,1-2.3,1C221.8,417,220.9,416.3,220.9,415z M221.9,406.6l0.8-0.8l2,2.3
			l-0.6,0.6L221.9,406.6z M225.1,415.1v-1.9c-2.3,0.3-3.1,0.8-3.1,1.7c0,0.8,0.5,1.1,1.2,1.1C223.9,416,224.5,415.7,225.1,415.1z"/>
		<path d="M228.4,410h1l0.1,1h0c0.6-0.6,1.3-1.2,2.1-1.2c1,0,1.6,0.5,1.9,1.3c0.7-0.8,1.4-1.3,2.2-1.3c1.4,0,2.1,0.9,2.1,2.7v4.3
			h-1.2v-4.2c0-1.3-0.4-1.8-1.3-1.8c-0.5,0-1.1,0.3-1.7,1v4.9h-1.2v-4.2c0-1.3-0.4-1.8-1.3-1.8c-0.5,0-1.1,0.3-1.7,1v4.9h-1.2V410z"
			/>
		<path d="M244.1,413.2L242,410h1.2l0.9,1.5c0.2,0.4,0.4,0.8,0.7,1.1h0.1c0.2-0.4,0.4-0.8,0.6-1.1l0.8-1.5h1.2l-2.1,3.4l2.2,3.4
			h-1.2l-1-1.6c-0.2-0.4-0.5-0.8-0.7-1.2h-0.1c-0.2,0.4-0.5,0.8-0.7,1.2l-0.9,1.6h-1.2L244.1,413.2z"/>
		<path d="M248.6,413.4c0-2.2,1.5-3.6,3.1-3.6c1.7,0,2.7,1.2,2.7,3.2c0,0.2,0,0.5-0.1,0.7h-4.6c0.1,1.4,1,2.4,2.3,2.4
			c0.7,0,1.2-0.2,1.7-0.5l0.4,0.8c-0.6,0.4-1.3,0.7-2.2,0.7C250,417,248.6,415.6,248.6,413.4z M253.3,412.8c0-1.4-0.6-2.1-1.7-2.1
			c-1,0-1.8,0.8-2,2.1H253.3z M250.8,408.2l2-2.3l0.8,0.8l-2.2,2.1L250.8,408.2z"/>
		<path d="M256.2,414.7v-3.8h-1v-0.9l1.1-0.1l0.1-1.9h1v1.9h1.8v0.9h-1.8v3.8c0,0.8,0.3,1.3,1.1,1.3c0.2,0,0.6-0.1,0.8-0.2l0.2,0.9
			c-0.4,0.1-0.8,0.3-1.3,0.3C256.7,417,256.2,416,256.2,414.7z"/>
		<path d="M263.5,410h1l0.1,1h0c0.6-0.6,1.3-1.1,2.3-1.1c1.4,0,2.1,0.9,2.1,2.7v4.3h-1.2v-4.2c0-1.3-0.4-1.8-1.3-1.8
			c-0.7,0-1.2,0.4-1.9,1v4.9h-1.2V410z"/>
		<path d="M270.7,418.1c0-0.6,0.4-1.1,1-1.5v-0.1c-0.3-0.2-0.6-0.6-0.6-1.1c0-0.6,0.4-1,0.7-1.3v-0.1c-0.5-0.4-0.9-1-0.9-1.8
			c0-1.5,1.2-2.4,2.6-2.4c0.4,0,0.7,0.1,1,0.2h2.4v0.9h-1.4c0.3,0.3,0.6,0.8,0.6,1.4c0,1.5-1.1,2.4-2.5,2.4c-0.3,0-0.7-0.1-1-0.2
			c-0.2,0.2-0.4,0.4-0.4,0.8c0,0.4,0.3,0.7,1.2,0.7h1.3c1.6,0,2.4,0.5,2.4,1.6c0,1.3-1.3,2.4-3.4,2.4
			C271.8,419.9,270.7,419.3,270.7,418.1z M275.8,417.8c0-0.6-0.5-0.8-1.4-0.8h-1.2c-0.3,0-0.6,0-0.9-0.1c-0.5,0.3-0.7,0.8-0.7,1.1
			c0,0.7,0.7,1.2,2,1.2C275,419.1,275.8,418.5,275.8,417.8z M274.9,412.2c0-1-0.6-1.6-1.4-1.6s-1.4,0.6-1.4,1.6c0,1,0.7,1.6,1.4,1.6
			C274.3,413.9,274.9,413.2,274.9,412.2z"/>
		<path d="M278.3,406.8h1.2v2.7l0,1.4c0.6-0.6,1.3-1.1,2.3-1.1c1.4,0,2.1,0.9,2.1,2.7v4.3h-1.2v-4.2c0-1.3-0.4-1.8-1.3-1.8
			c-0.7,0-1.2,0.4-1.9,1v4.9h-1.2V406.8z"/>
		<path d="M285.7,407.8c0-0.5,0.3-0.7,0.8-0.7c0.4,0,0.8,0.3,0.8,0.7c0,0.4-0.3,0.7-0.8,0.7C286,408.6,285.7,408.3,285.7,407.8z
			 M285.9,410h1.2v6.8h-1.2V410z"/>
		<path d="M288.8,413.4c0-2.2,1.5-3.6,3.1-3.6c1.7,0,2.7,1.2,2.7,3.2c0,0.2,0,0.5-0.1,0.7H290c0.1,1.4,1,2.4,2.3,2.4
			c0.7,0,1.2-0.2,1.7-0.5l0.4,0.8c-0.6,0.4-1.3,0.7-2.2,0.7C290.3,417,288.8,415.6,288.8,413.4z M291.3,406.4h1.2l1.6,2l-0.5,0.5
			l-1.7-1.6h-0.1l-1.7,1.6l-0.5-0.5L291.3,406.4z M293.6,412.8c0-1.4-0.6-2.1-1.7-2.1c-1,0-1.8,0.8-2,2.1H293.6z M291.1,418.9
			c0-0.4,0.3-0.7,0.8-0.7c0.4,0,0.8,0.3,0.8,0.7c0,0.5-0.3,0.8-0.8,0.8C291.4,419.7,291.1,419.4,291.1,418.9z"/>
		<path d="M296.3,410h1l0.1,1h0c0.6-0.6,1.3-1.2,2.1-1.2c1,0,1.6,0.5,1.9,1.3c0.7-0.8,1.4-1.3,2.2-1.3c1.4,0,2.1,0.9,2.1,2.7v4.3
			h-1.2v-4.2c0-1.3-0.4-1.8-1.3-1.8c-0.5,0-1.1,0.3-1.7,1v4.9h-1.2v-4.2c0-1.3-0.4-1.8-1.3-1.8c-0.5,0-1.1,0.3-1.7,1v4.9h-1.2V410z"
			/>
		<path d="M310.2,413.4c0-2.3,1.5-3.6,3.3-3.6c0.9,0,1.5,0.4,2,0.8l-0.6,0.8c-0.4-0.4-0.8-0.6-1.4-0.6c-1.2,0-2.1,1.1-2.1,2.6
			c0,1.6,0.9,2.6,2.1,2.6c0.6,0,1.2-0.3,1.6-0.7l0.5,0.8c-0.6,0.5-1.4,0.9-2.2,0.9C311.5,417,310.2,415.7,310.2,413.4z"/>
		<path d="M316.6,415c0-1.5,1.3-2.2,4.2-2.5c0-0.9-0.3-1.7-1.4-1.7c-0.8,0-1.5,0.4-2,0.7l-0.5-0.8c0.6-0.4,1.6-0.9,2.7-0.9
			c1.7,0,2.4,1.1,2.4,2.8v4.2h-1l-0.1-0.8h0c-0.6,0.5-1.4,1-2.3,1C317.5,417,316.6,416.3,316.6,415z M319,406.4h1.2l1.6,2l-0.5,0.5
			l-1.7-1.6h-0.1l-1.7,1.6l-0.5-0.5L319,406.4z M320.8,415.1v-1.9c-2.3,0.3-3.1,0.8-3.1,1.7c0,0.8,0.5,1.1,1.2,1.1
			C319.6,416,320.1,415.7,320.8,415.1z M318.6,418.9c0-0.4,0.3-0.7,0.8-0.7s0.8,0.3,0.8,0.7c0,0.5-0.3,0.8-0.8,0.8
			S318.6,419.4,318.6,418.9z"/>
		<path d="M324.1,410h1l0.1,1h0c0.6-0.6,1.3-1.1,2.3-1.1c1.4,0,2.1,0.9,2.1,2.7v4.3h-1.2v-4.2c0-1.3-0.4-1.8-1.3-1.8
			c-0.7,0-1.2,0.4-1.9,1v4.9h-1.2V410z"/>
		<path d="M334.6,415.4v-8.6h1.2v8.7c0,0.4,0.2,0.5,0.3,0.5c0.1,0,0.1,0,0.3,0l0.2,0.9c-0.2,0.1-0.4,0.1-0.7,0.1
			C334.9,417,334.6,416.4,334.6,415.4z"/>
		<path d="M337.7,415c0-1.5,1.3-2.2,4.2-2.5c0-0.9-0.3-1.7-1.4-1.7c-0.8,0-1.5,0.4-2,0.7l-0.5-0.8c0.6-0.4,1.6-0.9,2.7-0.9
			c1.7,0,2.4,1.1,2.4,2.8v4.2h-1L342,416h0c-0.6,0.5-1.4,1-2.3,1C338.6,417,337.7,416.3,337.7,415z M340.1,406.4h1.2l1.6,2l-0.5,0.5
			l-1.7-1.6h-0.1l-1.7,1.6l-0.5-0.5L340.1,406.4z M341.9,415.1v-1.9c-2.3,0.3-3.1,0.8-3.1,1.7c0,0.8,0.5,1.1,1.2,1.1
			C340.7,416,341.2,415.7,341.9,415.1z"/>
		<path d="M345.2,410h1l0.1,1h0c0.6-0.6,1.3-1.2,2.1-1.2c1,0,1.6,0.5,1.9,1.3c0.7-0.8,1.4-1.3,2.2-1.3c1.4,0,2.1,0.9,2.1,2.7v4.3
			h-1.2v-4.2c0-1.3-0.4-1.8-1.3-1.8c-0.5,0-1.1,0.3-1.7,1v4.9h-1.2v-4.2c0-1.3-0.4-1.8-1.3-1.8c-0.5,0-1.1,0.3-1.7,1v4.9h-1.2V410z"
			/>
		<path d="M358.8,416l0.6-0.8c0.6,0.5,1.2,0.8,2,0.8c0.9,0,1.3-0.5,1.3-1.1c0-0.7-0.8-1-1.6-1.3c-1-0.3-2-0.8-2-2
			c0-1.1,0.9-1.9,2.3-1.9c0.8,0,1.6,0.3,2.1,0.8l-0.6,0.7c-0.5-0.3-1-0.6-1.6-0.6c-0.9,0-1.3,0.5-1.3,1c0,0.6,0.7,0.9,1.5,1.2
			c1,0.4,2.1,0.8,2.1,2.1c0,1.1-0.9,2-2.5,2C360.4,417,359.5,416.6,358.8,416z"/>
		<path d="M365,415c0-1.5,1.3-2.2,4.2-2.5c0-0.9-0.3-1.7-1.4-1.7c-0.8,0-1.5,0.4-2,0.7l-0.5-0.8c0.6-0.4,1.6-0.9,2.7-0.9
			c1.7,0,2.4,1.1,2.4,2.8v4.2h-1l-0.1-0.8h0c-0.6,0.5-1.4,1-2.3,1C365.9,417,365,416.3,365,415z M366,406.6l0.8-0.8l2,2.3l-0.6,0.6
			L366,406.6z M369.2,415.1v-1.9c-2.3,0.3-3.1,0.8-3.1,1.7c0,0.8,0.5,1.1,1.2,1.1C368,416,368.6,415.7,369.2,415.1z"/>
		<path d="M372.5,410h1l0.1,1h0c0.6-0.6,1.3-1.1,2.3-1.1c1.4,0,2.1,0.9,2.1,2.7v4.3h-1.2v-4.2c0-1.3-0.4-1.8-1.3-1.8
			c-0.7,0-1.2,0.4-1.9,1v4.9h-1.2V410z"/>
		<path d="M379.7,418.1c0-0.6,0.4-1.1,1-1.5v-0.1c-0.3-0.2-0.6-0.6-0.6-1.1c0-0.6,0.4-1,0.7-1.3v-0.1c-0.5-0.4-0.9-1-0.9-1.8
			c0-1.5,1.2-2.4,2.6-2.4c0.4,0,0.7,0.1,1,0.2h2.4v0.9h-1.4c0.3,0.3,0.6,0.8,0.6,1.4c0,1.5-1.1,2.4-2.5,2.4c-0.3,0-0.7-0.1-1-0.2
			c-0.2,0.2-0.4,0.4-0.4,0.8c0,0.4,0.3,0.7,1.2,0.7h1.3c1.6,0,2.4,0.5,2.4,1.6c0,1.3-1.3,2.4-3.4,2.4
			C380.8,419.9,379.7,419.3,379.7,418.1z M384.8,417.8c0-0.6-0.5-0.8-1.4-0.8h-1.2c-0.3,0-0.6,0-0.9-0.1c-0.5,0.3-0.7,0.8-0.7,1.1
			c0,0.7,0.7,1.2,2,1.2C383.9,419.1,384.8,418.5,384.8,417.8z M383.9,412.2c0-1-0.6-1.6-1.4-1.6s-1.4,0.6-1.4,1.6
			c0,1,0.7,1.6,1.4,1.6C383.3,413.9,383.9,413.2,383.9,412.2z"/>
		<path d="M386.7,418.5c0.8-0.3,1.3-1,1.3-1.7l-0.1-1l0.6,0.8c-0.2,0.2-0.4,0.2-0.6,0.2c-0.4,0-0.8-0.3-0.8-0.8
			c0-0.5,0.4-0.8,0.9-0.8c0.6,0,1,0.5,1,1.4c0,1.2-0.7,2.2-1.8,2.6L386.7,418.5z"/>
		<path d="M393,413.4c0-2.3,1.5-3.6,3.3-3.6c0.9,0,1.5,0.4,2,0.8l-0.6,0.8c-0.4-0.4-0.8-0.6-1.4-0.6c-1.2,0-2.1,1.1-2.1,2.6
			c0,1.6,0.9,2.6,2.1,2.6c0.6,0,1.2-0.3,1.6-0.7l0.5,0.8c-0.6,0.5-1.4,0.9-2.2,0.9C394.4,417,393,415.7,393,413.4z"/>
		<path d="M399.9,406.8h1.2v2.7l0,1.4c0.6-0.6,1.3-1.1,2.3-1.1c1.4,0,2.1,0.9,2.1,2.7v4.3h-1.2v-4.2c0-1.3-0.4-1.8-1.3-1.8
			c-0.7,0-1.2,0.4-1.9,1v4.9h-1.2V406.8z"/>
		<path d="M407,413.4c0-2.3,1.5-3.6,3.2-3.6s3.2,1.3,3.2,3.6c0,2.3-1.5,3.6-3.2,3.6S407,415.7,407,413.4z M408.2,406.6l0.8-0.8
			l2,2.3l-0.6,0.6L408.2,406.6z M412.1,413.4c0-1.6-0.8-2.6-2-2.6s-2,1.1-2,2.6c0,1.6,0.8,2.6,2,2.6S412.1,415,412.1,413.4z
			 M411.4,410.1c0.8-0.1,1.3-0.6,1.3-1.3c0-0.3-0.1-0.5-0.2-0.8l0.9-0.4c0.2,0.3,0.3,0.7,0.3,1.1c0,1.1-0.8,1.7-1.6,1.9L411.4,410.1
			z"/>
		<path d="M417.9,410h1l0.1,1h0c0.6-0.6,1.3-1.1,2.3-1.1c1.4,0,2.1,0.9,2.1,2.7v4.3h-1.2v-4.2c0-1.3-0.4-1.8-1.3-1.8
			c-0.7,0-1.2,0.4-1.9,1v4.9h-1.2V410z"/>
		<path d="M425.6,406.8h1.2v2.7l0,1.4c0.6-0.6,1.3-1.1,2.3-1.1c1.4,0,2.1,0.9,2.1,2.7v4.3h-1.2v-4.2c0-1.3-0.4-1.8-1.3-1.8
			c-0.7,0-1.2,0.4-1.9,1v4.9h-1.2V406.8z"/>
		<path d="M432.8,415c0-1.5,1.3-2.2,4.2-2.5c0-0.9-0.3-1.7-1.4-1.7c-0.8,0-1.5,0.4-2,0.7l-0.5-0.8c0.6-0.4,1.6-0.9,2.7-0.9
			c1.7,0,2.4,1.1,2.4,2.8v4.2h-1L437,416h0c-0.6,0.5-1.4,1-2.3,1C433.6,417,432.8,416.3,432.8,415z M435.1,406.4h1.2l1.6,2l-0.5,0.5
			l-1.7-1.6h-0.1l-1.7,1.6l-0.5-0.5L435.1,406.4z M436.9,415.1v-1.9c-2.3,0.3-3.1,0.8-3.1,1.7c0,0.8,0.5,1.1,1.2,1.1
			C435.7,416,436.3,415.7,436.9,415.1z M434.7,418.9c0-0.4,0.3-0.7,0.8-0.7s0.8,0.3,0.8,0.7c0,0.5-0.3,0.8-0.8,0.8
			S434.7,419.4,434.7,418.9z"/>
		<path d="M440.2,410h1l0.1,1h0c0.6-0.6,1.3-1.1,2.3-1.1c1.4,0,2.1,0.9,2.1,2.7v4.3h-1.2v-4.2c0-1.3-0.4-1.8-1.3-1.8
			c-0.7,0-1.2,0.4-1.9,1v4.9h-1.2V410z"/>
		<path d="M450.7,406.8h1.1v6.8h0l2.9-3.6h1.3l-2.3,2.7l2.6,4.1h-1.3l-2-3.3l-1.3,1.5v1.8h-1.1V406.8z"/>
		<path d="M457.1,413.4c0-2.2,1.5-3.6,3.1-3.6c1.7,0,2.7,1.2,2.7,3.2c0,0.2,0,0.5-0.1,0.7h-4.6c0.1,1.4,1,2.4,2.3,2.4
			c0.7,0,1.2-0.2,1.7-0.5l0.4,0.8c-0.6,0.4-1.3,0.7-2.2,0.7C458.6,417,457.1,415.6,457.1,413.4z M461.9,412.8c0-1.4-0.6-2.1-1.7-2.1
			c-1,0-1.8,0.8-2,2.1H461.9z M458.3,408.3l1.4-1.3h0.9l1.4,1.3l-0.4,0.5l-1.4-1h-0.1l-1.4,1L458.3,408.3z M462.8,405.8l0.7,0.5
			l-1.4,1.6l-0.5-0.4L462.8,405.8z"/>
		<path d="M464.8,414.7v-3.8h-1v-0.9l1.1-0.1l0.1-1.9h1v1.9h1.8v0.9h-1.8v3.8c0,0.8,0.3,1.3,1.1,1.3c0.2,0,0.6-0.1,0.8-0.2l0.2,0.9
			c-0.4,0.1-0.8,0.3-1.3,0.3C465.3,417,464.8,416,464.8,414.7z"/>
		<path d="M476.4,417.3l0-1.2c-0.5,0.5-1.3,0.9-2,0.9c-1.7,0-2.8-1.3-2.8-3.6c0-2.2,1.4-3.6,2.9-3.6c0.8,0,1.3,0.3,1.9,0.8h0
			l0.1-0.6h0.9v9.7h-1.2V417.3z M476.4,415.1v-3.6c-0.6-0.5-1.1-0.7-1.7-0.7c-1.1,0-2,1-2,2.6c0,1.6,0.7,2.6,1.9,2.6
			C475.3,416,475.8,415.7,476.4,415.1z"/>
		<path d="M479.8,414.3V410h1.2v4.2c0,1.3,0.4,1.8,1.3,1.8c0.7,0,1.2-0.3,1.8-1.1V410h1.2v6.8h-1l-0.1-1.1h0
			c-0.6,0.7-1.3,1.2-2.2,1.2C480.4,417,479.8,416,479.8,414.3z"/>
		<path d="M487,415c0-1.5,1.3-2.2,4.2-2.5c0-0.9-0.3-1.7-1.4-1.7c-0.8,0-1.5,0.4-2,0.7l-0.5-0.8c0.6-0.4,1.6-0.9,2.7-0.9
			c1.7,0,2.4,1.1,2.4,2.8v4.2h-1l-0.1-0.8h0c-0.6,0.5-1.4,1-2.3,1C487.9,417,487,416.3,487,415z M491.2,415.1v-1.9
			c-2.3,0.3-3.1,0.8-3.1,1.7c0,0.8,0.5,1.1,1.2,1.1C490,416,490.6,415.7,491.2,415.1z M489.4,408.2c0.5-0.1,0.8-0.3,0.8-0.7
			c0-0.4-0.4-0.6-1.2-0.6l0.1-0.8c1.3,0,2,0.5,2,1.3c0,0.8-0.8,1.2-1.6,1.3L489.4,408.2z"/>
		<path d="M494.3,416.1c0-0.5,0.4-0.9,0.8-0.9c0.5,0,0.8,0.4,0.8,0.9c0,0.5-0.4,0.9-0.8,0.9C494.7,417,494.3,416.6,494.3,416.1z"/>
	</g>
</g>
<g>
	<path style="fill:#01B09A;" d="M305.1,276.6c0.3-0.8,0.8-0.8,1.1,0c0.3,0.8,0.3,2,0,2.8l-4.7,11.8c-0.1,0.4-0.3,0.6-0.6,0.6
		c-0.2,0-0.4-0.2-0.6-0.6l-4.7-11.8c-0.3-0.8-0.3-2,0-2.8c0.3-0.8,0.8-0.8,1.1,0l3.3,8.5V255c0-1.1,0.4-2,0.8-2c0.4,0,0.8,0.9,0.8,2
		v30.1L305.1,276.6z"/>
</g>
<g>
	<path style="fill:#01B09A;" d="M305.1,168.9c0.3-0.8,0.8-0.8,1.1,0c0.3,0.8,0.3,2,0,2.8l-4.7,11.8c-0.1,0.4-0.3,0.6-0.6,0.6
		c-0.2,0-0.4-0.2-0.6-0.6l-4.7-11.8c-0.3-0.8-0.3-2,0-2.8c0.3-0.8,0.8-0.8,1.1,0l3.3,8.5v-30.1c0-1.1,0.4-2,0.8-2
		c0.4,0,0.8,0.9,0.8,2v30.1L305.1,168.9z"/>
</g>
<g>
	<path style="fill:#01B09A;" d="M305.1,367.4c0.3-0.8,0.8-0.8,1.1,0c0.3,0.8,0.3,2,0,2.8l-4.7,11.8c-0.1,0.4-0.3,0.6-0.6,0.6
		c-0.2,0-0.4-0.2-0.6-0.6l-4.7-11.8c-0.3-0.8-0.3-2,0-2.8c0.3-0.8,0.8-0.8,1.1,0l3.3,8.5v-30.1c0-1.1,0.4-2,0.8-2
		c0.4,0,0.8,0.9,0.8,2v30.1L305.1,367.4z"/>
</g>
</svg>
